<svg width="18" height="20" viewBox="0 0 18 20" fill="none" xmlns="http://www.w3.org/2000/svg">
<path d="M12.8489 0C12.8954 0 12.942 0 12.9912 0C13.1053 1.41044 12.567 2.46432 11.9127 3.22751C11.2707 3.98542 10.3916 4.7205 8.96973 4.60897C8.87488 3.21872 9.41412 2.24301 10.0675 1.48158C10.6735 0.771967 11.7845 0.140517 12.8489 0Z" fill="black"/>
<path d="M17.1531 14.681C17.1531 14.695 17.1531 14.7073 17.1531 14.7205C16.7535 15.9307 16.1835 16.9679 15.4879 17.9304C14.853 18.8043 14.0748 19.9802 12.6855 19.9802C11.4849 19.9802 10.6875 19.2083 9.4571 19.1872C8.15555 19.1661 7.4398 19.8327 6.24979 20.0004C6.11366 20.0004 5.97754 20.0004 5.84405 20.0004C4.9702 19.874 4.26498 19.1819 3.75122 18.5584C2.23626 16.7158 1.06558 14.3358 0.847778 11.2901C0.847778 10.9915 0.847778 10.6938 0.847778 10.3952C0.939993 8.21542 1.99914 6.44314 3.40695 5.58423C4.14993 5.12755 5.17132 4.73849 6.30863 4.91238C6.79605 4.98791 7.29401 5.15478 7.73049 5.31989C8.14414 5.47885 8.66142 5.76076 9.15147 5.74583C9.48344 5.73617 9.81366 5.56316 10.1483 5.44108C11.1284 5.08715 12.0892 4.68141 13.3556 4.87199C14.8776 5.10208 15.9578 5.77832 16.6252 6.82166C15.3377 7.64105 14.3199 8.87585 14.4938 10.9845C14.6483 12.8999 15.7619 14.0205 17.1531 14.681Z" fill="black"/>
</svg>
