<svg width="20" height="20" viewBox="0 0 20 20" fill="none" xmlns="http://www.w3.org/2000/svg">
<path fill-rule="evenodd" clip-rule="evenodd" d="M9.98799 0C12.5108 0 14.5949 1.92228 14.8519 4.38082L14.9236 4.38167C16.3231 4.38167 18.0246 5.31112 18.5989 7.91804L19.3604 13.8123C19.6336 15.7147 19.2919 17.2406 18.3431 18.3351C17.3992 19.4238 15.9051 20 14.0221 20H5.96488C3.89653 20 2.45553 19.4933 1.55889 18.4519C0.658393 17.4076 0.357261 15.8411 0.664184 13.7969L1.41315 7.98077C1.90539 5.31402 3.70543 4.38167 5.09913 4.38167C5.21945 3.27218 5.71973 2.2167 6.51339 1.42555C7.42547 0.51926 8.68308 0 9.96772 0H9.98799ZM14.9236 5.82942H5.09913C4.67349 5.82942 3.25083 6.00122 2.84257 8.20566L2.09746 13.9967C1.8552 15.621 2.04244 16.7966 2.65532 17.5079C3.26048 18.2106 4.3434 18.5522 5.96488 18.5522H14.0221C15.0336 18.5522 16.4147 18.3505 17.2486 17.3873C17.9108 16.6238 18.1385 15.4869 17.9262 14.0073L17.1743 8.16609C16.8539 6.72702 16.0084 5.82942 14.9236 5.82942ZM12.8029 8.51654C13.2025 8.51654 13.549 8.84083 13.549 9.24041C13.549 9.63999 13.2469 9.96429 12.8473 9.96429H12.8029C12.4033 9.96429 12.079 9.63999 12.079 9.24041C12.079 8.84083 12.4033 8.51654 12.8029 8.51654ZM7.17588 8.51654C7.57546 8.51654 7.92195 8.84083 7.92195 9.24041C7.92195 9.63999 7.61889 9.96429 7.21931 9.96429H7.17588C6.7763 9.96429 6.452 9.63999 6.452 9.24041C6.452 8.84083 6.7763 8.51654 7.17588 8.51654ZM9.98509 1.44775H9.97061C9.06239 1.44775 8.17733 1.81355 7.5355 2.45152C7.01267 2.97201 6.67073 3.65624 6.56011 4.38122L13.3928 4.38149C13.1448 2.7231 11.7107 1.44775 9.98509 1.44775Z" fill="#111111"/>
</svg>
