<svg width="19" height="21" viewBox="0 0 19 21" fill="none" xmlns="http://www.w3.org/2000/svg">
<path d="M9.00494 0.164062C11.6849 0.164062 13.8882 2.26997 14 4.93839H13.9739C13.977 5.01595 13.9621 5.09319 13.9303 5.16406H14.0865C15.3035 5.16406 16.5778 6.00757 17.0888 8.04387L17.1444 8.28413L17.9133 14.4788C18.4666 18.4298 16.305 20.0913 13.3562 20.1617L13.1585 20.1641H4.86853C1.87178 20.1641 -0.437456 19.072 0.0702808 14.7476L0.104905 14.4788L0.882639 8.28413C1.26614 6.09125 2.55361 5.22631 3.79412 5.16733L3.93171 5.16406H4.00989C3.9967 5.08941 3.9967 5.01304 4.00989 4.93839C4.12172 2.26997 6.325 0.164062 9.00494 0.164062ZM6.097 8.49335C5.60889 8.49335 5.21321 8.90061 5.21321 9.403C5.21321 9.90538 5.60889 10.3126 6.097 10.3126C6.5851 10.3126 6.98079 9.90538 6.98079 9.403L6.9739 9.28889C6.91936 8.84037 6.54755 8.49335 6.097 8.49335ZM11.8858 8.49335C11.3977 8.49335 11.002 8.90061 11.002 9.403C11.002 9.90538 11.3977 10.3126 11.8858 10.3126C12.3739 10.3126 12.7696 9.90538 12.7696 9.403C12.7696 8.90061 12.3739 8.49335 11.8858 8.49335ZM8.96575 1.46645C7.04164 1.46645 5.48184 3.02089 5.48184 4.93839C5.49502 5.01304 5.49502 5.08941 5.48184 5.16406H12.4932C12.4654 5.09201 12.4506 5.01559 12.4497 4.93839C12.4497 3.02089 10.8899 1.46645 8.96575 1.46645Z" fill="#0080FF"/>
</svg>
