<svg width="21" height="20" viewBox="0 0 21 20" fill="none" xmlns="http://www.w3.org/2000/svg">
<path fill-rule="evenodd" clip-rule="evenodd" d="M10.437 0C13.0926 0 15.2864 1.92228 15.5568 4.38082L15.6323 4.38167C17.1055 4.38167 18.8966 5.31112 19.5011 7.91804L20.3027 13.8123C20.5902 15.7147 20.2306 17.2406 19.2319 18.3351C18.2383 19.4238 16.6656 20 14.6834 20H6.20214C4.02492 20 2.50809 19.4933 1.56425 18.4519C0.616359 17.4076 0.299378 15.8411 0.622455 13.7969L1.41084 7.98077C1.92899 5.31402 3.82376 4.38167 5.29082 4.38167C5.41747 3.27218 5.94408 2.2167 6.77951 1.42555C7.7396 0.51926 9.0634 0 10.4157 0H10.437ZM15.6323 5.82942H5.29082C4.84278 5.82942 3.34524 6.00122 2.91549 8.20566L2.13116 13.9967C1.87616 15.621 2.07325 16.7966 2.71839 17.5079C3.3554 18.2106 4.49532 18.5522 6.20214 18.5522H14.6834C15.7481 18.5522 17.202 18.3505 18.0798 17.3873C18.7767 16.6238 19.0165 15.4869 18.793 14.0073L18.0016 8.16609C17.6643 6.72702 16.7743 5.82942 15.6323 5.82942ZM13.4 8.51654C13.8207 8.51654 14.1854 8.84083 14.1854 9.24041C14.1854 9.63999 13.8674 9.96429 13.4468 9.96429H13.4C12.9794 9.96429 12.6381 9.63999 12.6381 9.24041C12.6381 8.84083 12.9794 8.51654 13.4 8.51654ZM7.47687 8.51654C7.89748 8.51654 8.26221 8.84083 8.26221 9.24041C8.26221 9.63999 7.9432 9.96429 7.52259 9.96429H7.47687C7.05626 9.96429 6.71489 9.63999 6.71489 9.24041C6.71489 8.84083 7.05626 8.51654 7.47687 8.51654ZM10.4339 1.44775H10.4187C9.46268 1.44775 8.53103 1.81355 7.85542 2.45152C7.30507 2.97201 6.94513 3.65624 6.8287 4.38122L14.021 4.38149C13.7599 2.7231 12.2504 1.44775 10.4339 1.44775Z" fill="#9CA4AB"/>
</svg>
