<svg width="20" height="20" viewBox="0 0 20 20" fill="none" xmlns="http://www.w3.org/2000/svg">
<path fill-rule="evenodd" clip-rule="evenodd" d="M9.98823 0C12.511 0 14.5951 1.92228 14.8521 4.38082L14.9238 4.38167C16.3233 4.38167 18.0249 5.31112 18.5992 7.91804L19.3607 13.8123C19.6338 15.7147 19.2922 17.2406 18.3434 18.3351C17.3995 19.4238 15.9054 20 14.0223 20H5.96513C3.89677 20 2.45578 19.4933 1.55914 18.4519C0.658637 17.4076 0.357505 15.8411 0.664428 13.7969L1.4134 7.98077C1.90563 5.31402 3.70567 4.38167 5.09937 4.38167C5.21969 3.27218 5.71997 2.2167 6.51363 1.42555C7.42571 0.51926 8.68333 0 9.96796 0H9.98823ZM14.9238 5.82942H5.09937C4.67373 5.82942 3.25108 6.00122 2.84281 8.20566L2.0977 13.9967C1.85544 15.621 2.04269 16.7966 2.65557 17.5079C3.26073 18.2106 4.34365 18.5522 5.96513 18.5522H14.0223C15.0338 18.5522 16.415 18.3505 17.2489 17.3873C17.911 16.6238 18.1388 15.4869 17.9264 14.0073L17.1746 8.16609C16.8541 6.72702 16.0087 5.82942 14.9238 5.82942ZM12.8031 8.51654C13.2027 8.51654 13.5492 8.84083 13.5492 9.24041C13.5492 9.63999 13.2471 9.96429 12.8475 9.96429H12.8031C12.4036 9.96429 12.0793 9.63999 12.0793 9.24041C12.0793 8.84083 12.4036 8.51654 12.8031 8.51654ZM7.17612 8.51654C7.5757 8.51654 7.9222 8.84083 7.9222 9.24041C7.9222 9.63999 7.61913 9.96429 7.21955 9.96429H7.17612C6.77654 9.96429 6.45225 9.63999 6.45225 9.24041C6.45225 8.84083 6.77654 8.51654 7.17612 8.51654ZM9.98534 1.44775H9.97086C9.06264 1.44775 8.17758 1.81355 7.53574 2.45152C7.01291 2.97201 6.67097 3.65624 6.56036 4.38122L13.393 4.38149C13.145 2.7231 11.711 1.44775 9.98534 1.44775Z" fill="#111111"/>
</svg>
