<svg width="36" height="22" viewBox="0 0 36 22" fill="none" xmlns="http://www.w3.org/2000/svg">
<path d="M36.002 1.58749L36.002 6.3871L33.8843 6.3871L33.8843 -9.25653e-08L35.6465 -1.55393e-08C35.8427 -6.95917e-09 36.002 0.710946 36.002 1.58749Z" fill="#690E19"/>
<path d="M36 20.3517C36 21.2611 35.2655 22.0001 34.3618 22.0001L1.03208 22.0001C0.363139 22.0001 -0.117402 21.349 0.0791846 20.7034L3.37202 13.0248L0.038227 4.40665C-0.139248 3.76654 0.33857 3.13467 0.999321 3.13467L29.0375 3.13468L34.3372 3.14841C35.241 3.15116 35.9754 2.41215 35.9754 1.50281L36 20.3517Z" fill="url(#paint0_linear_8127_66985)"/>
<defs>
<linearGradient id="paint0_linear_8127_66985" x1="35.1809" y1="11.7528" x2="3.8198" y2="11.7528" gradientUnits="userSpaceOnUse">
<stop stop-color="#FF223E"/>
<stop offset="1" stop-color="#B5182C"/>
</linearGradient>
</defs>
</svg>
