<svg width="159" height="165" viewBox="0 0 159 165" fill="none" xmlns="http://www.w3.org/2000/svg">
<path d="M90.0501 13.0506C90.1707 11.8635 90.9794 11.2189 91.9787 11.3211C92.9896 11.4233 93.6545 12.2173 93.5378 13.4044C93.4173 14.6032 92.6086 15.2361 91.5976 15.13C90.5984 15.0278 89.9296 14.2455 90.0501 13.0467V13.0506ZM95.9952 11.8203L97.3949 11.9618L92.0642 18.3649L90.6645 18.2234L95.9952 11.8242V11.8203ZM92.3636 13.2865C92.4336 12.5907 92.2197 12.2881 91.8893 12.2566C91.5782 12.2252 91.2905 12.4728 91.2205 13.1725C91.1505 13.8682 91.3838 14.1709 91.6948 14.2023C92.0253 14.2377 92.2975 13.9861 92.3636 13.2904V13.2865ZM94.5254 16.7808C94.646 15.5938 95.443 14.9491 96.454 15.0513C97.4649 15.1535 98.1298 15.9475 98.0131 17.1346C97.8926 18.3335 97.0839 18.9663 96.0729 18.8602C95.062 18.758 94.4049 17.9758 94.5254 16.7769V16.7808ZM96.8389 17.0167C96.9089 16.321 96.6834 16.0183 96.3645 15.9868C96.0457 15.9554 95.7658 16.203 95.6958 16.8988C95.6258 17.5945 95.8513 17.8972 96.1701 17.9286C96.489 17.9601 96.7728 17.7124 96.8389 17.0167Z" fill="#E0E0E0"/>
<path d="M129.283 7.8109C128.855 5.23629 130.041 3.24343 132.207 2.87787C134.376 2.50839 136.114 3.97847 136.546 6.57666C136.978 9.17486 135.811 11.1402 133.641 11.5058C131.472 11.8752 129.711 10.3855 129.283 7.80697V7.8109ZM135.115 6.82037C134.8 4.92184 133.785 3.93523 132.421 4.16321C131.079 4.39119 130.422 5.68832 130.733 7.56327C131.044 9.43821 132.086 10.4484 133.428 10.2204C134.792 9.98851 135.43 8.71889 135.115 6.82037ZM141.663 1.41172L143.385 1.12085L135.329 18.75L133.607 19.0409L141.663 1.41172ZM140.446 13.5851C140.018 11.0105 141.181 9.02156 143.35 8.656C145.52 8.28652 147.281 9.77625 147.709 12.3509C148.137 14.9255 146.951 16.9183 144.781 17.2839C142.612 17.6534 140.87 16.1597 140.442 13.5851H140.446ZM146.259 12.5985C145.948 10.7236 144.906 9.71729 143.564 9.94527C142.199 10.1772 141.562 11.4468 141.877 13.3453C142.192 15.2439 143.206 16.2344 144.571 16.0025C145.913 15.7745 146.57 14.4774 146.259 12.6024V12.5985Z" fill="#E0E0E0"/>
<path d="M10.1454 62.6406C9.44164 61.0526 10.0054 59.6454 11.343 59.044C12.6922 58.4348 14.1036 58.9458 14.8073 60.5338C15.515 62.1375 14.9473 63.529 13.5942 64.1382C12.2567 64.7436 10.853 64.2444 10.1454 62.6406ZM13.2365 61.2452C12.8244 60.3137 12.3383 60.0935 11.8951 60.2901C11.479 60.4788 11.2924 61.0055 11.7046 61.937C12.1167 62.8686 12.6299 63.0769 13.046 62.8922C13.4892 62.6917 13.6486 62.1768 13.2365 61.2452ZM16.7747 56.7328L18.6449 55.8877L16.4987 67.8842L14.6285 68.7293L16.7747 56.7328ZM18.4778 64.0753C17.774 62.4873 18.3261 61.088 19.6753 60.4788C21.0245 59.8695 22.4359 60.3805 23.1397 61.9724C23.8473 63.5761 23.2796 64.9637 21.9266 65.5769C20.5735 66.1861 19.1854 65.683 18.4778 64.0793V64.0753ZM21.5689 62.6799C21.1567 61.7484 20.6551 61.5322 20.2274 61.7248C19.7997 61.9174 19.6248 62.4402 20.0369 63.3717C20.4491 64.3033 20.9506 64.5195 21.3783 64.3269C21.806 64.1343 21.981 63.6115 21.5689 62.6799Z" fill="#E0E0E0"/>
<path d="M155.056 93.4615L157.031 94.0118L147.836 101.897L145.86 101.346L155.056 93.4615ZM146.222 93.7642C146.677 92.0858 147.995 91.3625 149.41 91.7556C150.837 92.1526 151.603 93.4536 151.148 95.132C150.689 96.8223 149.375 97.5337 147.948 97.1367C146.537 96.7436 145.763 95.4544 146.226 93.7642H146.222ZM149.488 94.6722C149.756 93.6895 149.519 93.2021 149.053 93.0724C148.613 92.9505 148.139 93.2375 147.871 94.2201C147.602 95.2028 147.871 95.6941 148.306 95.816C148.773 95.9457 149.22 95.6509 149.488 94.6682V94.6722ZM151.755 100.226C152.21 98.5478 153.516 97.8207 154.943 98.2177C156.37 98.6147 157.136 99.9157 156.681 101.594C156.222 103.284 154.908 103.996 153.481 103.599C152.054 103.202 151.296 101.916 151.759 100.226H151.755ZM155.021 101.134C155.289 100.152 155.036 99.6602 154.585 99.5344C154.13 99.4086 153.672 99.6995 153.403 100.682C153.135 101.665 153.388 102.156 153.839 102.278C154.29 102.404 154.753 102.113 155.021 101.13V101.134Z" fill="#E0E0E0"/>
<path d="M80.3176 48.761C80.2904 47.9867 80.7142 47.4521 81.3791 47.4285C82.044 47.4049 82.5145 47.8962 82.5456 48.6745C82.5767 49.4528 82.1412 49.9834 81.4763 50.007C80.8114 50.0306 80.3487 49.5314 80.3176 48.761ZM81.9973 48.6981C81.9779 48.1753 81.7563 47.8884 81.3947 47.9002C81.0486 47.912 80.8348 48.2225 80.8542 48.7413C80.8737 49.2602 81.1108 49.5511 81.4569 49.5393C81.8146 49.5236 82.0168 49.2209 81.9973 48.6981ZM84.1708 47.3695L84.8201 47.3459L81.8185 52.1689L81.1692 52.1925L84.1708 47.3695ZM83.4476 50.8639C83.4204 50.0896 83.8442 49.555 84.5091 49.5314C85.174 49.5078 85.6444 50.007 85.6755 50.7774C85.7028 51.5479 85.2712 52.0864 84.6063 52.11C83.9414 52.1335 83.4787 51.6343 83.4476 50.8639ZM85.1273 50.801C85.1079 50.2822 84.8785 49.9913 84.5246 50.0031C84.1708 50.0149 83.9647 50.3215 83.9842 50.8443C84.0036 51.3671 84.233 51.654 84.5869 51.6422C84.9407 51.6304 85.1468 51.316 85.1273 50.801Z" fill="#E0E0E0"/>
<path d="M153.121 48.9971C153.094 48.2227 153.518 47.6882 154.183 47.6646C154.848 47.641 155.318 48.1323 155.349 48.9106C155.38 49.6889 154.945 50.2195 154.28 50.2431C153.615 50.2667 153.152 49.7675 153.121 48.9971ZM154.801 48.9342C154.782 48.4114 154.56 48.1245 154.198 48.1363C153.852 48.1481 153.638 48.4586 153.658 48.9774C153.677 49.4963 153.915 49.7872 154.261 49.7754C154.618 49.7596 154.82 49.457 154.801 48.9342ZM156.975 47.6056L157.624 47.582L154.622 52.405L153.973 52.4286L156.975 47.6056ZM156.251 51.1C156.224 50.3257 156.648 49.7911 157.313 49.7675C157.978 49.7439 158.448 50.2431 158.479 51.0135C158.506 51.7839 158.075 52.3225 157.41 52.346C156.745 52.3696 156.282 51.8704 156.251 51.1ZM157.931 51.0371C157.912 50.5183 157.682 50.2274 157.328 50.2392C156.975 50.251 156.768 50.5576 156.788 51.0804C156.807 51.6031 157.037 51.8901 157.391 51.8783C157.744 51.8665 157.95 51.552 157.931 51.0371Z" fill="#E0E0E0"/>
<path d="M94.7652 33.7465L97.8174 35.4367L94.7652 37.123L93.0933 40.2125L91.4252 37.123L88.3691 35.4367L91.4252 33.7465L93.0933 30.6609L94.7652 33.7465Z" fill="#EBEBEB"/>
<path d="M85.4459 29.4848L86.488 30.0587L85.4459 30.6365L84.8783 31.686L84.3106 30.6365L83.2686 30.0587L84.3106 29.4848L84.8783 28.4353L85.4459 29.4848Z" fill="#EBEBEB"/>
<path d="M75.2985 56.9328L76.3405 57.5067L75.2985 58.0806L74.7308 59.134L74.1631 58.0806L73.1211 57.5067L74.1631 56.9328L74.7308 55.8794L75.2985 56.9328Z" fill="#EBEBEB"/>
<path d="M134.742 31.7569L136.62 32.7946L134.742 33.8323L133.716 35.7309L132.69 33.8323L130.815 32.7946L132.69 31.7569L133.716 29.8584L134.742 31.7569Z" fill="#EBEBEB"/>
<path d="M148.421 59.5471L150.116 60.8639L148.102 61.5989L146.799 63.3127L146.076 61.2766L144.377 59.9598L146.391 59.2248L147.697 57.511L148.421 59.5471Z" fill="#EBEBEB"/>
<path d="M119.78 42.873L121.094 43.5963L119.78 44.3195L119.065 45.6481L118.349 44.3195L117.035 43.5963L118.349 42.873L119.065 41.5444L119.78 42.873Z" fill="#EBEBEB"/>
<path d="M145.208 144.607C146.134 145.012 146.814 145.877 147.156 146.836C147.499 147.795 147.53 148.841 147.413 149.855C147.195 151.812 146.091 153.794 144.905 155.358C143.272 153.919 142.899 151.408 142.786 150.118C142.611 148.086 143.513 144.305 145.208 144.607Z" fill="#0080FF"/>
<path d="M146.803 158.589C146.542 157.481 146.997 156.266 147.837 155.511C148.677 154.753 149.851 154.434 150.975 154.521C151.496 154.56 152.056 154.713 152.351 155.146C152.627 155.551 152.596 156.113 152.371 156.549C152.145 156.985 151.756 157.312 151.344 157.571C149.929 158.467 148.401 159.073 146.799 158.589" fill="#0080FF"/>
<path d="M144.711 164.595C144.711 164.595 144.723 164.45 144.769 164.194C144.82 163.911 144.886 163.546 144.968 163.106C145.146 162.198 145.38 160.893 146.08 159.631C146.768 158.369 147.736 157.441 148.549 156.982C148.953 156.746 149.307 156.604 149.556 156.533C149.68 156.49 149.781 156.475 149.847 156.459C149.913 156.443 149.948 156.439 149.952 156.443C149.964 156.475 149.388 156.581 148.603 157.068C147.818 157.544 146.884 158.463 146.208 159.702C145.524 160.94 145.275 162.225 145.073 163.129C144.975 163.585 144.894 163.955 144.831 164.21C144.769 164.466 144.73 164.603 144.719 164.599L144.711 164.595Z" fill="#263238"/>
<path d="M144.772 147.548C144.772 147.548 144.784 147.607 144.792 147.725C144.799 147.855 144.807 148.024 144.823 148.228C144.846 148.668 144.873 149.301 144.897 150.087C144.947 151.656 144.986 153.825 144.978 156.223C144.966 158.621 144.908 160.791 144.846 162.359C144.815 163.145 144.784 163.778 144.757 164.218C144.741 164.427 144.733 164.592 144.722 164.721C144.714 164.835 144.706 164.898 144.698 164.898C144.694 164.898 144.69 164.835 144.69 164.721C144.69 164.592 144.694 164.423 144.698 164.214C144.71 163.758 144.725 163.125 144.741 162.355C144.78 160.787 144.823 158.617 144.83 156.223C144.842 153.829 144.815 151.66 144.792 150.091C144.78 149.321 144.768 148.688 144.764 148.232C144.764 148.024 144.764 147.859 144.764 147.725C144.764 147.611 144.764 147.548 144.772 147.548Z" fill="#263238"/>
<path d="M143.98 159.78C143.606 157.41 142.028 155.268 139.885 154.23C139.341 153.967 138.629 153.794 138.178 154.203C137.731 154.615 137.828 155.35 138.05 155.92C138.964 158.295 141.417 159.969 143.937 159.942" fill="#0080FF"/>
<path d="M140.148 156.089C140.148 156.089 140.277 156.136 140.494 156.242C140.603 156.294 140.739 156.36 140.887 156.455C141.035 156.549 141.21 156.639 141.385 156.769C141.564 156.895 141.762 157.032 141.956 157.202C142.159 157.363 142.357 157.555 142.563 157.76C142.963 158.18 143.368 158.679 143.714 159.257C144.056 159.839 144.301 160.436 144.472 160.995C144.55 161.278 144.624 161.545 144.663 161.8C144.717 162.056 144.736 162.296 144.76 162.516C144.791 162.736 144.779 162.936 144.787 163.109C144.795 163.286 144.787 163.436 144.775 163.557C144.756 163.801 144.744 163.939 144.733 163.939C144.701 163.939 144.756 163.392 144.663 162.528C144.635 162.311 144.608 162.076 144.55 161.824C144.507 161.572 144.429 161.309 144.348 161.034C144.173 160.488 143.928 159.906 143.593 159.332C143.255 158.766 142.858 158.271 142.47 157.854C142.267 157.65 142.077 157.457 141.883 157.296C141.696 157.123 141.502 156.985 141.33 156.856C140.631 156.349 140.137 156.121 140.152 156.093L140.148 156.089Z" fill="#263238"/>
<path d="M54.072 27.127C54.5464 27.127 59.8304 28.4123 61.3157 31.0577C62.801 33.703 63.4425 43.3961 63.4425 43.3961C63.4425 43.3961 63.8702 50.212 62.9448 53.4823C62.0078 56.7998 58.9945 72.8292 57.8786 76.0917C56.4438 80.2779 54.4064 87.1802 54.4064 87.1802L37.0107 74.6924L54.072 27.123V27.127Z" fill="#0080FF"/>
<path d="M59.5997 12.0214C58.8492 13.6644 59.0903 15.5866 59.5336 17.3396C59.9768 19.0927 60.6067 20.834 60.595 22.6422C60.5756 25.2993 59.9107 28.9313 54.5839 27.2175C51.3412 26.1719 54.3234 35.9083 52.5698 38.8563C52.2238 39.442 51.8622 40.0394 51.314 40.4364C50.0036 41.3759 48.2034 40.8334 46.7026 40.2556C46.2243 40.0709 45.6761 39.8115 45.5672 39.3044C45.5089 39.045 45.5867 38.7738 45.6644 38.5222C48.3162 29.627 50.9679 20.7318 53.6196 11.8367" fill="#263238"/>
<path d="M50.5452 32.7947C53.6013 32.0676 54.5383 30.5307 54.5733 27.8145L54.62 24.3595C54.62 24.3595 58.0027 24.1826 58.7881 19.0923C59.1808 16.561 59.519 12.4691 59.3013 9.0769C59.103 6.02274 55.9653 0.641613 52.9597 0.971792L44.6973 5.03614C43.7836 5.1344 43.0954 5.92447 43.1187 6.85605L43.7603 26.5882" fill="#FFBEA9"/>
<path d="M57.3694 12.6101C57.381 12.956 57.105 13.2508 56.7473 13.2705C56.3934 13.2902 56.0941 13.0268 56.0824 12.6848C56.0707 12.3389 56.3468 12.0441 56.7045 12.0245C57.0583 12.0048 57.3577 12.2682 57.3733 12.6101H57.3694Z" fill="#263238"/>
<path d="M58.4126 11.4081C58.3543 11.5181 57.7866 11.2233 57.1101 11.3727C56.4297 11.5142 56.0214 12.0173 55.9242 11.9387C55.8776 11.9034 55.9242 11.7186 56.0992 11.4946C56.2741 11.2705 56.5969 11.0189 57.0207 10.9285C57.4445 10.8381 57.8411 10.9364 58.086 11.07C58.3349 11.2037 58.4437 11.357 58.4165 11.4081H58.4126Z" fill="#263238"/>
<path d="M50.7024 12.5359C50.714 12.8818 50.438 13.1766 50.0803 13.1963C49.7265 13.2159 49.4271 12.9526 49.4154 12.6106C49.4037 12.2647 49.6798 11.9699 50.0375 11.9503C50.3913 11.9306 50.6907 12.194 50.7063 12.5359H50.7024Z" fill="#263238"/>
<path d="M51.5283 12.1309C51.4194 12.1978 51.0189 11.6514 50.2957 11.4391C49.5725 11.2151 48.931 11.4549 48.8765 11.3369C48.8493 11.2858 48.9815 11.1404 49.2654 11.0304C49.5453 10.9203 49.9808 10.8613 50.4318 10.995C50.8828 11.1325 51.2133 11.4195 51.3805 11.6632C51.5516 11.9108 51.5788 12.0995 51.5283 12.1309Z" fill="#263238"/>
<path d="M54.1251 16.588C54.1251 16.5487 54.5528 16.4701 55.2527 16.3797C55.4315 16.36 55.5987 16.3247 55.626 16.2028C55.6687 16.0731 55.591 15.8805 55.5054 15.6722C55.3382 15.2398 55.1633 14.7838 54.9766 14.3082C54.2457 12.3664 53.713 10.7666 53.7907 10.7391C53.8685 10.7116 54.5256 12.2603 55.2566 14.2021C55.4316 14.6816 55.6026 15.1376 55.762 15.5739C55.8281 15.7783 55.9448 16.0102 55.8554 16.2775C55.8087 16.4111 55.6765 16.5094 55.5637 16.5408C55.451 16.5762 55.3499 16.5802 55.2644 16.5841C54.5606 16.6234 54.1251 16.6273 54.1212 16.588H54.1251Z" fill="#263238"/>
<path d="M54.622 24.4106C54.622 24.4106 51.2354 24.6386 47.876 22.6064C47.876 22.6064 49.5673 26.2384 54.6025 25.751L54.622 24.4067V24.4106Z" fill="#E4977C"/>
<path d="M54.0109 18.2945C53.6649 17.7718 53.1478 17.4259 52.6773 17.4023C52.3507 17.3866 52.0474 17.532 51.8958 17.8425C51.7441 18.153 51.7752 18.6444 52.0085 19.0099C52.269 19.4227 52.7162 19.5917 53.0622 19.5249C53.4083 19.458 53.6765 19.2065 53.9332 18.951C54.0031 18.8802 54.0731 18.8055 54.1081 18.6994C54.1431 18.5933 54.1315 18.44 54.0537 18.3299" fill="#E4977C"/>
<path d="M52.0804 17.0794C52.1931 17.0715 52.197 17.8341 52.8424 18.3726C53.4879 18.915 54.2927 18.8246 54.2966 18.9347C54.3083 18.9819 54.1178 19.0841 53.7795 19.0919C53.4451 19.1037 52.9591 18.9976 52.5664 18.6674C52.1737 18.3372 52.0026 17.8931 51.9754 17.5825C51.9443 17.2641 52.0298 17.0755 52.0804 17.0794Z" fill="#263238"/>
<path d="M52.1364 8.8917C52.0509 9.07644 51.3665 8.91528 50.5461 8.93494C49.7257 8.93494 49.0492 9.11182 48.9559 8.93101C48.917 8.84453 49.0492 8.67551 49.3291 8.51828C49.6091 8.36106 50.0446 8.22741 50.5384 8.22348C51.0322 8.21955 51.4676 8.3414 51.7515 8.49077C52.0353 8.64014 52.1714 8.80522 52.1364 8.8917Z" fill="#263238"/>
<path d="M58.6247 9.86667C58.4731 10.0239 57.8782 9.8588 57.1627 9.85094C56.4473 9.82343 55.8408 9.95707 55.7047 9.78805C55.6425 9.70551 55.7397 9.54828 56.0041 9.39498C56.2646 9.24561 56.7 9.12376 57.1938 9.13556C57.6838 9.14735 58.1115 9.29278 58.3603 9.45787C58.613 9.62296 58.6947 9.78805 58.6286 9.86274L58.6247 9.86667Z" fill="#263238"/>
<path d="M32.365 28.5966C33.4615 26.8042 37.0075 22.504 38.2633 19.5402C39.1576 17.4255 39.8342 10.0122 41.7433 6.1955C43.6523 2.37879 45.8997 0.834026 48.1043 0.236559C50.3089 -0.364838 51.9653 0.452748 52.9606 1.35288C53.956 2.25301 54.2982 4.87479 54.2982 4.87479C54.2982 4.87479 48.9753 6.06972 47.1867 9.1396C45.1299 12.6615 44.6283 14.4342 44.6283 14.4342L43.9634 16.3603C43.9634 16.3603 44.5855 20.0905 44.8149 21.934C45.0443 23.7775 44.6788 25.4913 43.178 26.2381L40.1569 28.3961C40.1569 28.3961 41.7977 46.2297 41.6149 46.3712C41.1639 46.721 37.3846 45.9467 33.9669 45.1566C33.302 45.0033 32.9404 38.7103 32.9404 38.7103L31.9412 44.6024L29.3711 44.0088C29.3711 44.0088 30.1254 32.2639 32.3689 28.5966H32.365Z" fill="#263238"/>
<path d="M54.1967 4.89871C54.1967 4.89871 57.49 4.57639 58.6136 8.0472C59.123 9.61948 59.5118 14.1555 59.5118 14.1555C59.5118 14.1555 59.9551 10.5511 59.7918 8.4953C59.6284 6.43954 58.6136 3.83742 57.0545 2.39878C55.5381 0.999454 54.2589 0.343027 51.5488 0.508117C51.5488 0.508117 52.6297 1.00338 53.3218 2.04502C53.6679 2.56387 53.7534 2.94515 54.2006 4.89871H54.1967Z" fill="#263238"/>
<path d="M44.6655 14.7017C44.6111 13.5736 43.398 12.8229 42.4298 13.3889C41.901 13.6994 41.4928 14.3205 41.5433 15.5154C41.6716 18.7032 44.8132 17.9131 44.8132 17.8227C44.8132 17.7677 44.7277 16.0185 44.6616 14.7017H44.6655Z" fill="#FFBEA9"/>
<path d="M43.8026 16.6551C43.8026 16.6551 43.7482 16.6984 43.6587 16.7416C43.5693 16.7888 43.4138 16.8241 43.2466 16.7691C42.9083 16.659 42.605 16.1363 42.5661 15.5624C42.5467 15.2715 42.5934 14.9924 42.6867 14.7605C42.7722 14.5247 42.9161 14.3557 43.0833 14.3164C43.2466 14.2692 43.371 14.3675 43.4138 14.4539C43.4604 14.5404 43.441 14.6072 43.4604 14.6112C43.4682 14.619 43.5265 14.5561 43.4954 14.4225C43.4799 14.3596 43.441 14.2849 43.3632 14.2259C43.2855 14.167 43.1727 14.1395 43.0561 14.1591C42.815 14.1866 42.605 14.4225 42.5039 14.678C42.3873 14.9335 42.329 15.2479 42.3484 15.5742C42.3951 16.2149 42.745 16.8045 43.2077 16.9185C43.4332 16.9696 43.616 16.891 43.7054 16.8123C43.7987 16.7298 43.8143 16.659 43.8026 16.6512V16.6551Z" fill="#E4977C"/>
<path d="M43.0174 4.37598C41.0694 7.12747 39.7357 10.3231 39.1486 13.6564C38.7793 15.7514 38.6548 18.0194 37.3951 19.7254C36.7341 20.6216 35.7892 21.3134 35.3032 22.3196C34.7744 23.4124 34.8522 24.7488 34.2301 25.7904C33.5536 26.9303 32.2082 27.4649 31.3256 28.4515C29.6693 30.3068 30.0348 33.1684 29.3582 35.57C28.9266 37.0991 28.0323 38.4905 26.8231 39.5086C26.411 39.8584 25.9055 40.3144 26.061 40.8372C26.1544 41.1516 26.4615 41.3442 26.7531 41.4936C27.7057 41.9849 28.5884 43.8677 29.6421 44.0682C29.8598 38.3372 32.6126 31.4546 35.5948 26.5766C37.2979 23.7936 39.1758 21.0107 39.8485 17.8072C40.2918 15.7003 40.1829 13.5149 40.4162 11.3726C40.6495 9.23039 41.2988 6.99775 42.9007 5.57877" fill="#263238"/>
<path d="M42.0745 18.6913C42.0356 18.7385 41.7479 18.6048 41.3668 18.1764C41.0013 17.748 40.5542 16.9972 40.4531 15.9398C40.4064 15.4171 40.4531 14.8196 40.6592 14.2221C40.8614 13.6286 41.2074 13.0547 41.6312 12.5319C42.055 12.0052 42.5527 11.5257 43.0737 11.054C43.5986 10.5823 44.1624 10.1224 44.7651 9.67823C45.9665 8.78989 47.1991 8.07057 48.3655 7.51634C49.5398 6.95818 50.6129 6.59656 51.4489 6.1917C52.2887 5.79863 52.8914 5.36625 53.2646 5.01249C53.6418 4.66265 53.8206 4.41895 53.8906 4.45826C53.9451 4.48577 53.8829 4.80023 53.564 5.27191C53.253 5.7436 52.6386 6.32534 51.7871 6.82847C50.9395 7.34339 49.8703 7.78363 48.7816 8.35751C47.6812 8.93533 46.5187 9.65071 45.3639 10.4997C44.7884 10.9243 44.2402 11.3606 43.7308 11.8047C43.2176 12.2489 42.7432 12.6852 42.3505 13.1333C41.9578 13.5814 41.6468 14.0452 41.4524 14.5169C41.258 14.9847 41.1802 15.4564 41.1763 15.8966C41.1763 16.7849 41.4601 17.4846 41.6973 17.9366C41.9423 18.3887 42.1367 18.6206 42.0822 18.6795L42.0745 18.6913Z" fill="#263238"/>
<path d="M43.3561 18.8331C43.3561 18.8331 43.2977 18.8135 43.2005 18.7585C43.0995 18.7113 42.9595 18.617 42.7884 18.4872C42.4501 18.2239 42.0069 17.7561 41.6764 17.0447C41.3498 16.345 41.1476 15.3741 41.4081 14.36C41.6647 13.338 42.3996 12.4064 43.2977 11.6596C44.2037 10.9088 45.1407 10.3153 45.9845 9.76502C46.836 9.22258 47.6214 8.76662 48.2902 8.40106C48.9589 8.03551 49.511 7.76036 49.896 7.57562C50.0865 7.48521 50.2381 7.41446 50.3431 7.37122C50.4481 7.32798 50.5025 7.30833 50.5064 7.31226C50.5142 7.32405 50.3081 7.44197 49.9349 7.64637C49.5616 7.85076 49.0211 8.14557 48.364 8.52685C47.7069 8.90812 46.9293 9.37588 46.0895 9.92224C45.2535 10.4765 44.3203 11.0779 43.4338 11.8168C42.5551 12.5519 41.8475 13.4442 41.5947 14.4072C41.3381 15.3663 41.517 16.3018 41.8164 16.9857C42.1196 17.6775 42.5318 18.1492 42.8467 18.4243C43.1656 18.6995 43.3755 18.8096 43.3638 18.8292L43.3561 18.8331Z" fill="#455A64"/>
<path d="M49.6172 0.0324283C49.6133 0.0127748 50.0216 -0.0579778 50.6515 0.103181C51.2775 0.260409 52.1173 0.625964 52.8677 1.28239C53.6259 1.95061 54.0108 2.8193 54.1547 3.44821C54.2286 3.76659 54.2519 4.02995 54.248 4.21469C54.248 4.39551 54.2325 4.4977 54.2208 4.4977C54.1858 4.4977 54.1897 4.09677 54.0147 3.48751C53.8398 2.88612 53.451 2.06853 52.7316 1.43569C52.0123 0.802846 51.2075 0.425498 50.6126 0.240755C50.0138 0.0481511 49.6172 0.0678046 49.6172 0.0324283Z" fill="#455A64"/>
<path d="M41.6289 17.4141C41.6289 17.4141 41.4812 17.5635 41.2634 17.8622C41.0496 18.1609 40.7774 18.6405 40.6802 19.293C40.583 19.9376 40.7074 20.763 41.1973 21.4745C41.6717 22.1742 42.5738 22.7559 43.5536 22.6341C44.0357 22.579 44.4867 22.3589 44.8017 22.0287C45.1205 21.6985 45.3032 21.2701 45.3966 20.8495C45.5754 20.0044 45.4782 19.179 45.2022 18.5933C44.9261 17.9958 44.4595 17.6735 44.129 17.5359C43.7908 17.3984 43.5769 17.4141 43.5769 17.3944C43.5769 17.3866 43.6275 17.3787 43.7285 17.3826C43.8296 17.3826 43.9735 17.4023 44.1562 17.4613C44.5101 17.5792 45.0155 17.9015 45.3305 18.5265C45.6415 19.1436 45.7582 19.9926 45.5793 20.8888C45.486 21.333 45.2955 21.7968 44.9455 22.1663C44.5995 22.5358 44.1018 22.7716 43.5769 22.8345C43.0481 22.9013 42.5232 22.7756 42.0877 22.5358C41.6523 22.296 41.2945 21.958 41.0418 21.5806C40.5286 20.8181 40.4158 19.9415 40.5364 19.2694C40.653 18.5894 40.9602 18.102 41.1973 17.8111C41.3179 17.6656 41.4267 17.5634 41.5006 17.5006C41.5784 17.4377 41.6212 17.4062 41.625 17.4141H41.6289Z" fill="#E0E0E0"/>
<path d="M29.2719 155.976L31.4843 146.278L23.7002 144.962V152.049L25.8659 155.276L29.2719 155.976Z" fill="#FFBEA9"/>
<path d="M29.989 155.507L29.7285 155.928C29.7285 155.928 34.962 163.306 34.1882 164.701L20.2725 155.649L23.4413 151.089C24.8955 153.405 26.9912 154.922 29.989 155.507Z" fill="#0080FF"/>
<g opacity="0.6">
<path d="M23.8979 153.503C23.583 153.4 23.2019 153.585 23.0892 153.904C22.9764 154.218 23.1592 154.611 23.4741 154.717C23.789 154.823 24.2517 154.615 24.3295 154.289C24.4073 153.962 24.1662 153.51 23.8357 153.487" fill="white"/>
</g>
<g opacity="0.6">
<path d="M20.2715 155.649L21.0336 154.552L34.0939 163.632C34.0939 163.632 34.5411 164.308 34.1873 164.705L20.2715 155.653V155.649Z" fill="white"/>
</g>
<path d="M29.7521 155.999C29.7054 156.066 29.3477 155.877 28.8734 155.881C28.399 155.873 28.0374 156.058 27.9908 155.991C27.9363 155.936 28.2979 155.594 28.8734 155.598C29.4488 155.598 29.8065 155.948 29.7521 156.003V155.999Z" fill="#263238"/>
<path d="M30.8222 157.559C30.795 157.638 30.4257 157.559 30.0096 157.701C29.5897 157.83 29.3331 158.105 29.267 158.058C29.197 158.027 29.407 157.594 29.9241 157.429C30.4412 157.26 30.8611 157.492 30.8222 157.559Z" fill="#263238"/>
<path d="M30.5272 159.862C30.4572 159.839 30.5816 159.434 30.9938 159.17C31.4059 158.903 31.8219 158.966 31.8142 159.041C31.8142 159.123 31.4798 159.19 31.1454 159.41C30.8032 159.622 30.601 159.902 30.5272 159.862Z" fill="#263238"/>
<path d="M10.158 94.6445L17.1373 95.5918L14.4506 103.371L6.96971 100.772L6.5459 97.8952L10.158 94.6445Z" fill="#FFBEA9"/>
<path d="M7.70636 101.299L7.28643 101.118C7.28643 101.118 1.38419 107.073 0 106.566L6.11998 92.3174L10.7275 94.5697C8.84559 96.2638 7.78412 98.4296 7.70636 101.299Z" fill="#0080FF"/>
<g opacity="0.6">
<path d="M8.60637 95.3519C8.64914 95.0453 8.42363 94.719 8.12424 94.6601C7.82096 94.6011 7.49047 94.833 7.44381 95.1396C7.39326 95.4462 7.65377 95.8471 7.96094 95.8668C8.2681 95.8904 8.64137 95.5995 8.61415 95.289" fill="white"/>
</g>
<g opacity="0.6">
<path d="M6.12096 92.3174L7.22909 92.8598L0.957467 106.319C0.957467 106.319 0.413123 106.833 0.000976562 106.566L6.12096 92.3174Z" fill="white"/>
</g>
<path d="M7.22415 101.15C7.15805 101.118 7.27469 100.757 7.20082 100.316C7.13861 99.8761 6.91698 99.5695 6.97142 99.5144C7.01419 99.4555 7.37967 99.7424 7.46133 100.273C7.54687 100.808 7.28247 101.189 7.22804 101.15H7.22415Z" fill="#263238"/>
<path d="M5.96985 102.376C5.89597 102.364 5.90764 102.011 5.72101 101.645C5.54215 101.276 5.25443 101.079 5.28553 101.008C5.30108 100.938 5.72489 101.067 5.9543 101.523C6.1837 101.979 6.03984 102.4 5.97374 102.372L5.96985 102.376Z" fill="#263238"/>
<path d="M3.83691 102.447C3.84858 102.376 4.23351 102.431 4.53679 102.777C4.84006 103.119 4.84784 103.512 4.77785 103.516C4.70398 103.531 4.59122 103.229 4.34238 102.95C4.09742 102.667 3.81747 102.517 3.8408 102.447H3.83691Z" fill="#263238"/>
<path d="M48.5094 87.1841C47.8912 87.4946 40.0954 117.871 37.642 119.125L32.6768 143.829C32.6768 143.829 33.1278 144.344 33.0151 145.429C32.9023 146.514 32.4513 146.687 32.4513 146.687C32.4513 146.687 25.2776 147.599 22.3926 145.488C22.3926 145.488 22.7308 143.318 22.9019 143.145C23.073 142.973 23.7496 123.382 25.4992 118.814C27.2489 114.247 29.5663 99.7938 29.3407 96.8812C29.1152 93.9685 28.322 87.1723 28.4931 85.0026C28.6642 82.8328 29.3952 80.6631 29.3952 80.6631L48.5055 87.1881L48.5094 87.1841Z" fill="#263238"/>
<path d="M51.6011 88.4107C51.6011 88.4107 48.9571 106.728 46.6787 109.707C44.4002 112.687 41.2897 112.765 40.5509 112.891C39.8121 113.017 12.9604 102.974 12.9604 102.974C12.9604 102.974 12.525 95.5803 13.3959 94.4758C13.3959 94.4758 15.7988 94.5859 16.3431 95.3602L30.3133 97.3452L35.4457 81.5674L51.5972 88.4068L51.6011 88.4107Z" fill="#263238"/>
<path d="M47.0202 88.3789C47.0202 88.3789 47.0085 88.489 46.9618 88.6934C46.9113 88.9174 46.8413 89.2161 46.7558 89.5896C46.5653 90.3875 46.297 91.5038 45.9665 92.8756C45.2783 95.6625 44.3334 99.4831 43.2914 103.705C42.2533 107.934 41.1724 111.739 40.107 114.396C39.586 115.725 39.1039 116.778 38.7461 117.49C38.5712 117.847 38.4195 118.119 38.3184 118.303C38.2173 118.488 38.1629 118.582 38.1551 118.578C38.1474 118.578 38.194 118.472 38.2834 118.284C38.369 118.091 38.5128 117.816 38.6762 117.454C39.0144 116.731 39.4732 115.678 39.9748 114.345C41.0013 111.688 42.0589 107.887 43.097 103.658C44.1624 99.4438 45.1266 95.631 45.8304 92.8442C46.1842 91.4763 46.4758 90.3639 46.6819 89.5738C46.783 89.2044 46.8646 88.9096 46.923 88.6855C46.9813 88.485 47.0124 88.3789 47.0202 88.3789Z" fill="#455A64"/>
<path d="M28.5405 84.5112C28.5405 84.5112 28.525 84.6056 28.5094 84.7864C28.49 84.9672 28.4822 85.2345 28.4861 85.5804C28.4939 86.2722 28.56 87.2667 28.6649 88.5009C28.7816 89.7391 28.9177 91.2013 29.0693 92.8247C29.1976 94.452 29.4542 96.2404 29.4737 98.135C29.5242 101.94 28.6688 105.297 28.1556 107.706C27.899 108.897 27.6851 109.868 27.5335 110.568C27.4635 110.89 27.4091 111.15 27.3663 111.346C27.3274 111.523 27.3002 111.617 27.2963 111.613C27.2885 111.613 27.3002 111.515 27.3274 111.338C27.3585 111.138 27.4052 110.878 27.4557 110.552C27.5763 109.872 27.7629 108.889 28.0117 107.679C28.49 105.261 29.3143 101.916 29.2637 98.1429C29.2482 96.2601 28.9954 94.4834 28.8788 92.8482C28.7427 91.2249 28.6183 89.7587 28.5172 88.5166C28.4317 87.2824 28.385 86.28 28.4044 85.5882C28.4122 85.2423 28.4355 84.9711 28.4667 84.7903C28.4939 84.6095 28.5366 84.5191 28.5366 84.5191L28.5405 84.5112Z" fill="#455A64"/>
<path d="M16.07 95.2541C16.1011 95.2659 15.9417 95.7218 15.7317 96.4647C15.5217 97.2116 15.269 98.2532 15.1018 99.4206C14.9346 100.592 14.8841 101.661 14.8802 102.439C14.8763 103.214 14.8958 103.697 14.8646 103.697C14.8491 103.697 14.8297 103.579 14.8024 103.363C14.7752 103.147 14.7519 102.832 14.7363 102.439C14.7052 101.657 14.7363 100.572 14.8996 99.3892C15.0707 98.206 15.3468 97.1565 15.5917 96.4176C15.7162 96.0481 15.825 95.7533 15.9145 95.5528C16 95.3523 16.0544 95.2423 16.0661 95.2501L16.07 95.2541Z" fill="#455A64"/>
<path d="M8.82646 102.018C8.82646 102.073 8.79147 102.121 8.75259 102.121C8.7137 102.121 8.67871 102.073 8.67871 102.018C8.67871 101.963 8.7137 101.916 8.75259 101.916C8.79147 101.916 8.82646 101.963 8.82646 102.018Z" fill="#455A64"/>
<path d="M23.0791 142.76C23.0869 142.728 23.6234 142.823 24.4944 142.964C25.3653 143.102 26.5707 143.279 27.9082 143.416C29.2457 143.554 30.4627 143.624 31.3453 143.664C32.228 143.703 32.7723 143.723 32.7723 143.75C32.7723 143.766 32.6362 143.778 32.3874 143.79C32.1385 143.801 31.7808 143.809 31.3415 143.805C30.4549 143.805 29.2341 143.754 27.8888 143.617C26.5434 143.479 25.3342 143.279 24.4672 143.106C24.0317 143.019 23.6856 142.941 23.4446 142.878C23.2035 142.815 23.0752 142.775 23.0752 142.76H23.0791Z" fill="#455A64"/>
<path d="M50.9756 89.9434C51.0611 89.8844 56.0808 89.9434 56.0808 89.9434C56.0808 89.9434 59.8367 71.4376 60.2839 65.7656C60.731 60.0936 51.1272 68.3913 51.1272 68.3913L50.9756 89.9434Z" fill="#0080FF"/>
<path d="M58.539 83.7881C58.7101 84.645 58.9706 85.4115 58.8618 86.2801C58.8307 86.5317 58.7879 86.7833 58.6674 87.0034C58.5235 87.2707 58.2824 87.4672 58.0452 87.6559C57.4776 88.1158 56.9099 88.5717 56.3422 89.0316C56.1595 89.1771 55.899 89.3264 55.7162 89.181C55.584 89.0749 55.5879 88.8744 55.6112 88.7054C55.6812 88.2219 55.8484 87.7542 56.0934 87.3336L56.6999 84.7629L56.0778 83.4343L58.539 83.792" fill="#FFBEA9"/>
<path d="M44.1953 25.4482C44.1953 25.4482 49.071 25.4482 51.9366 31.8867C51.9366 31.8867 60.5761 47.1182 60.7744 53.6156C60.7744 53.6156 60.6733 63.2616 59.0675 68.9493C57.4617 74.637 52.8348 89.6995 52.8348 89.6995C52.8348 89.6995 38.3747 88.4416 35.4624 86.3112C32.5502 84.1808 26.123 84.4834 26.123 84.4834C26.123 84.4834 30.0384 72.4005 34.8598 65.0894C39.6811 57.7783 37.772 44.7834 37.772 44.7834C37.772 44.7834 36.4228 25.5072 44.1914 25.4482H44.1953Z" fill="#0080FF"/>
<path d="M51.1279 89.5309C51.1279 89.5309 51.2095 89.5309 51.3612 89.5348C51.5167 89.5426 51.7422 89.5505 52.0377 89.5466C52.6287 89.5466 53.4997 89.5112 54.5884 89.4051L54.5417 89.4444C55.5449 85.8753 57.2012 79.7788 58.6048 72.7586C59.7324 67.1573 60.4167 62.0199 60.6267 58.2818C60.7317 56.4147 60.7317 54.8975 60.6967 53.8519C60.6734 53.3409 60.6539 52.94 60.6423 52.6491C60.6423 52.5194 60.6345 52.4172 60.6345 52.3346C60.6345 52.2639 60.6345 52.2285 60.6345 52.2285C60.6345 52.2285 60.6423 52.2639 60.65 52.3346C60.6578 52.4172 60.6695 52.5194 60.6811 52.6452C60.7045 52.936 60.7356 53.337 60.7744 53.848C60.8328 54.8935 60.8522 56.4147 60.7667 58.2897C60.5956 62.0395 59.9307 67.1888 58.7993 72.7979C57.3956 79.8299 55.7004 85.9185 54.6467 89.4758L54.635 89.5151H54.5961C53.4997 89.6095 52.6287 89.6252 52.0338 89.6095C51.7383 89.6016 51.5089 89.582 51.3534 89.5662C51.2018 89.5466 51.1201 89.5348 51.1201 89.5309H51.1279Z" fill="#263238"/>
<path d="M54.5677 28.2157C54.5949 27.6654 59.9256 36.1085 61.3136 45.0194C61.8152 48.223 60.6332 52.2283 60.6332 52.2283L50.6367 29.5482C50.6367 29.5482 54.3033 33.1802 54.5677 28.2157Z" fill="#E0E0E0"/>
<path d="M47.2533 26.3875C47.2533 26.3875 47.7238 26.698 48.4159 27.4409C48.7581 27.8143 49.1313 28.3253 49.4268 28.9857C49.7301 29.6421 49.9906 30.4164 50.3094 31.2576V31.2694L50.3133 31.2851C50.325 32.0044 50.465 32.7788 50.7371 33.5649C51.0054 34.3511 51.3903 35.149 51.8219 35.9666C52.7084 37.5939 53.6688 39.3745 54.5981 41.273C56.6588 45.4474 58.2257 49.3703 59.2639 52.2397C59.7849 53.6744 60.1698 54.8497 60.4303 55.6594C60.5509 56.0525 60.6481 56.3669 60.7181 56.5988C60.7803 56.815 60.8114 56.929 60.8036 56.929C60.7958 56.929 60.7531 56.8229 60.6792 56.6106C60.5975 56.3826 60.4926 56.0721 60.3565 55.683C60.0726 54.8811 59.6683 53.7137 59.1317 52.2869C58.0624 49.4332 56.4761 45.53 54.4192 41.3595C53.4938 39.4649 52.5412 37.6882 51.6586 36.0531C51.227 35.2316 50.8421 34.4218 50.5738 33.62C50.3055 32.8181 50.1656 32.0241 50.1617 31.2851V31.3126C49.8545 30.4675 49.6057 29.6893 49.3141 29.0368C49.0302 28.3843 48.6764 27.8772 48.3498 27.4959C48.0232 27.1147 47.7316 26.8513 47.5411 26.6666C47.4516 26.584 47.3777 26.5172 47.3194 26.4582C47.2689 26.4111 47.2456 26.3835 47.2494 26.3835L47.2533 26.3875Z" fill="#263238"/>
<path d="M53.9944 60.1842C53.9944 60.1842 54.0761 60.1724 54.2083 60.2353C54.3366 60.2982 54.5038 60.4397 54.6165 60.6756C54.7215 60.9075 54.7837 61.2495 54.6204 61.5796C54.4649 61.9177 54.0449 62.1142 53.6445 62.067C53.244 62.0317 52.8707 61.7565 52.7852 61.3949C52.6919 61.0372 52.8163 60.7149 52.964 60.5105C53.1196 60.3022 53.314 60.1921 53.4501 60.1607C53.59 60.1253 53.6678 60.141 53.6678 60.1528C53.6833 60.1882 53.3373 60.196 53.0807 60.597C52.964 60.7856 52.8746 61.0686 52.9602 61.3477C53.0379 61.6268 53.3256 61.8391 53.66 61.8705C53.9944 61.9059 54.321 61.7526 54.4493 61.4971C54.5854 61.2416 54.5582 60.9507 54.4765 60.7385C54.3055 60.2943 53.9672 60.2196 53.9866 60.1882L53.9944 60.1842Z" fill="#263238"/>
<path d="M41.4592 61.6622C41.4592 61.6622 41.2104 61.5718 40.7672 61.4185C40.5455 61.3438 40.2695 61.2573 39.9429 61.2023C39.6201 61.1473 39.2352 61.1158 38.8425 61.2259C38.4498 61.3359 38.0765 61.615 37.8277 62.0356C37.575 62.4523 37.4078 62.9633 37.1939 63.49C36.7779 64.5434 36.323 65.6951 35.8447 66.9057C35.7125 67.232 35.5842 67.5582 35.4637 67.8648L35.3665 67.7233C37.746 67.6565 39.799 68.3562 41.1171 69.0716C41.782 69.4253 42.2835 69.7712 42.614 70.0267C42.7812 70.1486 42.9018 70.2586 42.9834 70.3294C43.0651 70.4001 43.1078 70.4394 43.1039 70.4473C43.0962 70.4591 42.9095 70.3215 42.5713 70.0857C42.2291 69.8498 41.7236 69.5275 41.0549 69.1934C39.7368 68.5213 37.7072 67.857 35.3704 67.9277H35.2148L35.2732 67.7862C35.3937 67.4796 35.522 67.1573 35.6542 66.8271C36.1363 65.6204 36.599 64.4687 37.019 63.4192C37.2367 62.9004 37.4078 62.3854 37.6838 61.9452C37.8199 61.729 37.9871 61.5325 38.1815 61.387C38.3759 61.2416 38.5898 61.1433 38.8036 61.0844C39.2313 60.9743 39.6318 61.0176 39.9662 61.0844C40.3006 61.1551 40.5766 61.2534 40.7983 61.3399C41.0199 61.4264 41.1871 61.505 41.2998 61.56C41.4126 61.615 41.467 61.6504 41.467 61.6543L41.4592 61.6622Z" fill="#263238"/>
<path d="M60.7596 57.2121C60.7596 57.2121 60.7596 57.161 60.7712 57.0667C60.7868 56.9566 60.8023 56.8191 60.8257 56.6501C60.884 56.2648 60.9617 55.7342 61.0628 55.0699C61.2806 53.6902 61.5877 51.7563 61.9532 49.4372V49.449C61.996 48.2777 62.0543 46.9963 62.0815 45.6402C62.0971 44.9641 62.0621 44.2683 62.0077 43.5569C61.9921 43.2031 61.9493 42.8454 61.8988 42.4838C61.8599 42.1222 61.8016 41.7606 61.7316 41.3989C61.3506 39.237 60.6624 37.2481 59.9197 35.5029C59.1693 33.7577 58.3217 32.264 57.5207 31.073C56.7197 29.882 55.9732 28.9897 55.4405 28.3922C55.1723 28.0935 54.9467 27.8773 54.8068 27.7201C54.6629 27.5668 54.589 27.4843 54.5929 27.4764C54.5968 27.4685 54.6823 27.5432 54.834 27.6886C54.9856 27.8341 55.2228 28.0424 55.4989 28.3333C56.051 28.919 56.8208 29.7994 57.6412 30.9865C58.4616 32.1736 59.3248 33.6712 60.0908 35.4243C60.849 37.1774 61.5489 39.1781 61.9338 41.3596C62.0038 41.7252 62.066 42.0907 62.1049 42.4563C62.1554 42.8179 62.1943 43.1795 62.2137 43.5412C62.2682 44.2566 62.3032 44.9562 62.2837 45.6402C62.2526 47.0041 62.1904 48.2816 62.136 49.4529V49.4647C61.7394 51.776 61.4089 53.7099 61.1717 55.0817C61.0512 55.7421 60.9579 56.2688 60.8879 56.654C60.8529 56.823 60.8295 56.9566 60.8062 57.0667C60.7868 57.161 60.7751 57.2082 60.7712 57.2082L60.7596 57.2121Z" fill="#263238"/>
<path d="M53.4778 80.6551C53.68 80.5608 57.4009 82.0701 58.1397 83.0371C58.754 83.839 58.6218 84.5072 58.6218 84.5072C58.6218 84.5072 53.8744 82.4514 52.8984 82.5929C51.9264 82.7305 51.2576 84.1534 50.655 83.2336C50.0523 82.3139 49.959 82.2038 49.959 82.2038L53.4739 80.6551H53.4778Z" fill="#FFBEA9"/>
<path d="M44.147 26.3875C45.5118 26.3875 49.015 29.0721 49.2133 35.9784C49.4038 42.692 48.9684 54.83 48.9684 54.83L54.4973 79.9944C54.6568 80.242 49.12 83.2018 46.6782 82.565C46.6782 82.565 40.3094 59.8534 39.7651 57.0548C39.2207 54.2561 38.0387 41.2141 38.4936 38.2778C38.9485 35.3377 38.2409 26.4032 44.147 26.3914V26.3875Z" fill="#0080FF"/>
<path d="M47.3411 79.8489C47.0301 79.6327 46.5285 79.8489 46.4663 80.2223C46.4041 80.5997 46.8123 80.9652 47.1739 80.8591C47.5355 80.753 47.6872 80.2223 47.4383 79.9393" fill="#E0E0E0"/>
<path d="M47.4426 79.9392C47.4426 79.9392 47.4971 79.9549 47.5515 80.0336C47.602 80.1082 47.6487 80.2458 47.6292 80.4148C47.6098 80.5799 47.5243 80.7883 47.3104 80.9101C47.0966 81.0359 46.7933 80.9809 46.6028 80.8C46.4045 80.6271 46.3112 80.3284 46.4123 80.1004C46.5056 79.8724 46.7039 79.7623 46.8594 79.723C47.0227 79.6837 47.1627 79.7112 47.2443 79.7545C47.326 79.7977 47.3532 79.841 47.3493 79.8527C47.3337 79.8842 47.1666 79.7623 46.9022 79.8645C46.7777 79.9117 46.6378 80.0178 46.5872 80.1711C46.5289 80.3244 46.5911 80.517 46.7389 80.6507C46.8866 80.7804 47.0849 80.8197 47.2288 80.745C47.3726 80.6743 47.4582 80.521 47.4932 80.3912C47.5593 80.1161 47.4232 79.9589 47.4504 79.9431L47.4426 79.9392Z" fill="#263238"/>
<path d="M46.8077 78.3628C46.5044 78.2292 46.1117 78.52 46.1467 78.8542C46.1817 79.1883 46.6327 79.3848 46.8971 79.1883C47.1654 78.9917 47.111 78.4965 46.8077 78.3628Z" fill="#E0E0E0"/>
<path d="M46.806 78.3629C46.806 78.3629 46.8566 78.3511 46.9265 78.3943C46.9965 78.4375 47.0821 78.5319 47.1248 78.6773C47.1637 78.8188 47.1637 79.0232 47.0237 79.1962C46.8838 79.3731 46.6038 79.4163 46.3939 79.3141C46.1761 79.2237 46.0167 78.9878 46.0517 78.7638C46.0828 78.5437 46.2306 78.4061 46.3589 78.3393C46.495 78.2725 46.6194 78.2725 46.6971 78.296C46.7749 78.3196 46.806 78.355 46.8021 78.3668C46.7943 78.3982 46.6272 78.3275 46.4289 78.469C46.3355 78.5358 46.2422 78.6498 46.2344 78.7874C46.2228 78.921 46.32 79.0625 46.4716 79.1333C46.6233 79.2001 46.7943 79.1765 46.8838 79.0743C46.9771 78.9761 46.9965 78.8267 46.9849 78.7127C46.9538 78.4729 46.7905 78.3943 46.806 78.3668V78.3629Z" fill="#263238"/>
<path d="M46.42 76.8496C46.1167 76.716 45.724 77.0069 45.759 77.341C45.794 77.6751 46.245 77.8716 46.5094 77.6751C46.7777 77.4785 46.7233 76.9833 46.42 76.8496Z" fill="#E0E0E0"/>
<path d="M46.4183 76.8494C46.4183 76.8494 46.4689 76.8376 46.5388 76.8809C46.6088 76.9241 46.6944 77.0185 46.7371 77.1639C46.776 77.3054 46.776 77.5098 46.6361 77.6827C46.4961 77.8596 46.2161 77.9029 46.0062 77.8007C45.7884 77.7103 45.629 77.4744 45.664 77.2504C45.6951 77.0302 45.8429 76.8927 45.9712 76.8259C46.1073 76.759 46.2317 76.759 46.3094 76.7826C46.3872 76.8062 46.4183 76.8416 46.4144 76.8534C46.4066 76.8848 46.2395 76.8141 46.0412 76.9556C45.9478 77.0224 45.8545 77.1364 45.8468 77.274C45.8351 77.4076 45.9323 77.5491 46.0839 77.6198C46.2356 77.6867 46.4066 77.6631 46.4961 77.5609C46.5894 77.4626 46.6088 77.3133 46.5972 77.1993C46.5661 76.9595 46.4028 76.8809 46.4183 76.8534V76.8494Z" fill="#263238"/>
<path d="M38.5679 37.6213C38.5679 37.6213 38.5679 37.6999 38.5679 37.8571C38.5679 38.0104 38.5562 38.2423 38.5601 38.545C38.564 39.1503 38.5835 40.0426 38.6379 41.1903C38.7429 43.4898 38.9645 46.8191 39.2911 50.9424C39.3766 51.9723 39.4622 53.0532 39.5555 54.1813C39.6022 54.7434 39.6527 55.3212 39.7032 55.9069C39.7149 56.0523 39.7305 56.2017 39.7421 56.3471L39.7616 56.5672L39.8082 56.7834C39.8665 57.0704 39.9443 57.3652 40.0182 57.66C40.617 60.0223 41.3052 62.5419 42.0206 65.1991C43.4787 70.5094 45.0845 76.3662 46.7797 82.5452L46.6903 82.4706C47.6196 82.561 48.6305 82.4509 49.6103 82.1993C51.3639 81.7434 53.0047 80.9179 54.4394 79.9195L54.4005 80.0217C52.3359 70.6077 50.454 62.0466 48.9571 55.2151V55.2033V55.1915C49.1904 49.6531 49.377 45.1368 49.5092 42.0001C49.5792 40.4396 49.6336 39.2211 49.6725 38.3878C49.692 37.979 49.7114 37.6645 49.7192 37.4444C49.7308 37.2321 49.7425 37.1221 49.7425 37.1221C49.7425 37.1221 49.7425 37.2321 49.7425 37.4444C49.7347 37.6645 49.727 37.979 49.7153 38.3878C49.6881 39.2211 49.6453 40.4396 49.5948 42.0001C49.4781 45.1407 49.3148 49.6571 49.1126 55.1954V55.1758C50.6212 62.0034 52.5148 70.5605 54.5988 79.9706L54.6144 80.0375L54.56 80.0728C53.0941 81.0909 51.4494 81.9203 49.6609 82.388C48.6655 82.6474 47.6312 82.7575 46.6709 82.6632L46.6009 82.6553L46.5814 82.5885C44.894 76.4055 43.292 70.5487 41.8417 65.2384C41.1302 62.5812 40.4459 60.0616 39.8549 57.6914C39.781 57.3927 39.7071 57.1058 39.6488 56.8031L39.6022 56.579L39.5827 56.355C39.571 56.2056 39.5594 56.0602 39.5438 55.9147C39.4972 55.3291 39.4505 54.7513 39.4039 54.1892C39.3183 53.0611 39.2328 51.9801 39.155 50.9503C38.8478 46.823 38.6457 43.4937 38.5679 41.1903C38.5251 40.0387 38.5174 39.1464 38.5251 38.5411C38.5251 38.2384 38.5485 38.0065 38.5523 37.8532C38.5601 37.6999 38.5718 37.6213 38.5718 37.6213H38.5679Z" fill="#263238"/>
<path d="M147.939 69.5237L128.553 55.2002C127.009 54.0603 125.061 53.6319 123.187 54.0249L71.727 64.8422C68.0488 65.6166 65.6964 69.276 66.4974 72.9866L74.4254 109.75C75.2224 113.441 78.8307 115.78 82.4817 114.97L133.634 103.595C135.547 103.17 137.184 101.924 138.121 100.183L149.883 78.3009C151.501 75.2939 150.665 71.5401 147.931 69.5197L147.939 69.5237ZM139.544 78.922C139.144 81.2254 136.974 82.7662 134.692 82.3613C132.414 81.9565 130.889 79.7631 131.29 77.4558C131.69 75.1524 133.86 73.6116 136.142 74.0165C138.421 74.4213 139.945 76.6186 139.544 78.922Z" fill="#0080FF"/>
<g opacity="0.4">
<path d="M147.94 69.5239L128.554 55.2004C127.01 54.0605 125.062 53.6321 123.188 54.0252L71.7279 64.8425C68.0497 65.6168 65.6974 69.2763 66.4984 72.9869L74.4263 109.751C75.2234 113.442 78.8316 115.78 82.4826 114.971L133.635 103.595C135.548 103.171 137.185 101.925 138.122 100.183L149.884 78.3012C151.502 75.2942 150.666 71.5404 147.932 69.52L147.94 69.5239ZM139.584 78.8829C139.18 81.2138 136.983 82.7704 134.677 82.3616C132.372 81.9528 130.898 79.7319 131.303 77.401C131.707 75.0701 133.95 73.6276 136.256 74.0403C138.562 74.453 139.989 76.552 139.584 78.8829Z" fill="black"/>
</g>
<path d="M146.23 68.3203L126.844 53.9968C125.3 52.8569 123.352 52.4285 121.478 52.8255L70.018 63.6428C66.3398 64.4171 63.9874 68.0766 64.7884 71.7872L72.7164 108.551C73.5134 112.242 77.1217 114.581 80.7727 113.771L131.925 102.396C133.838 101.971 135.475 100.725 136.412 98.9837L148.174 77.1015C149.792 74.0945 148.956 70.3407 146.222 68.3203H146.23ZM137.797 77.7579C137.4 80.0338 135.254 81.5589 133.002 81.158C130.751 80.7571 129.243 78.5873 129.639 76.3114C130.036 74.0356 132.182 72.5104 134.433 72.9114C136.685 73.3123 138.193 75.4821 137.797 77.7579Z" fill="#FFA7A1"/>
<path d="M114.637 48.2151C114.606 48.2269 112.961 43.738 110.966 38.1918C108.972 32.6416 107.381 28.1371 107.413 28.1253C107.444 28.1135 109.088 32.6023 111.083 38.1486C113.078 43.6948 114.668 48.2033 114.637 48.2151Z" fill="#263238"/>
<path d="M128.535 18.6802C128.535 18.6802 128.535 18.7077 128.527 18.7549C128.519 18.8099 128.508 18.8846 128.496 18.9789C128.465 19.1833 128.418 19.4663 128.364 19.8319C128.243 20.5787 128.076 21.6479 127.866 22.9647C127.446 25.61 126.89 29.2734 126.33 33.3221C125.77 37.3746 125.315 41.0498 125.001 43.7109C124.845 45.0355 124.721 46.1086 124.631 46.8633C124.588 47.2289 124.553 47.5158 124.526 47.7202C124.514 47.8106 124.503 47.8853 124.495 47.9443C124.487 47.9954 124.483 48.0189 124.479 48.0189C124.479 48.0189 124.479 47.9914 124.479 47.9403C124.483 47.8814 124.491 47.8106 124.499 47.7163C124.518 47.5119 124.546 47.2249 124.581 46.8555C124.651 46.1086 124.763 45.0316 124.911 43.6991C125.203 41.0341 125.646 37.355 126.206 33.3024C126.766 29.2499 127.337 25.5904 127.781 22.9489C128.002 21.6282 128.185 20.5591 128.317 19.8201C128.383 19.4585 128.438 19.1755 128.473 18.9711C128.492 18.8807 128.504 18.806 128.515 18.751C128.527 18.6999 128.531 18.6763 128.535 18.6763V18.6802Z" fill="#263238"/>
<path d="M146.247 33.8795C146.274 33.9031 143.486 37.2835 140.026 41.4343C136.561 45.5851 133.734 48.9341 133.711 48.9105C133.684 48.8869 136.468 45.5065 139.932 41.3557C143.393 37.2049 146.223 33.8598 146.247 33.8795Z" fill="#263238"/>
<path d="M106.692 50.8489C106.669 50.8764 105.016 49.4889 103.002 47.7515C100.988 46.0141 99.3705 44.5833 99.3938 44.5558C99.4171 44.5283 101.066 45.9158 103.084 47.6532C105.098 49.3906 106.715 50.8214 106.692 50.8449V50.8489Z" fill="#263238"/>
<path d="M149.152 55.2477C149.152 55.2831 146.975 55.1534 144.292 54.9608C141.609 54.7682 139.439 54.5834 139.439 54.5481C139.439 54.5127 141.617 54.6424 144.3 54.835C146.983 55.0276 149.152 55.2123 149.152 55.2477Z" fill="#263238"/>
<g opacity="0.3">
<path d="M74.6976 71.4612C74.4526 70.3527 74.927 69.4683 75.8796 69.2521C76.8322 69.0359 77.6409 69.6216 77.8898 70.7419C78.1386 71.8582 77.6526 72.7387 76.6961 72.9549C75.7435 73.171 74.9387 72.5736 74.6937 71.4651L74.6976 71.4612ZM77.1083 70.9148C76.9411 70.1641 76.5445 69.8064 76.0274 69.9243C75.5336 70.0343 75.3041 70.5414 75.4675 71.2843C75.6308 72.0272 76.0507 72.3849 76.5484 72.2748C77.0616 72.1569 77.2755 71.6656 77.1083 70.9148ZM79.8961 68.4149L80.8292 68.2026L77.7654 75.9776L76.8322 76.1898L79.8961 68.4149ZM79.7755 73.6506C79.5306 72.5421 80.0049 71.6577 80.9576 71.4415C81.9102 71.2253 82.7228 71.8228 82.9677 72.9313C83.2127 74.0397 82.7306 74.9281 81.7741 75.1442C80.8215 75.3604 80.0166 74.763 79.7717 73.6545L79.7755 73.6506ZM82.1862 73.1042C82.0229 72.3613 81.6108 71.9997 81.1053 72.1137C80.5998 72.2277 80.3782 72.7229 80.5454 73.4737C80.7126 74.2245 81.1209 74.5782 81.6263 74.4642C82.1318 74.3502 82.3495 73.8432 82.1862 73.1042Z" fill="white"/>
</g>
<g opacity="0.3">
<path d="M113.313 64.4995C113.068 63.3911 113.542 62.5067 114.495 62.2905C115.447 62.0743 116.256 62.66 116.505 63.7802C116.754 64.8965 116.264 65.777 115.311 65.9932C114.359 66.2094 113.554 65.6119 113.309 64.5034L113.313 64.4995ZM115.724 63.9532C115.556 63.2024 115.16 62.8486 114.643 62.9626C114.149 63.0766 113.919 63.5797 114.083 64.3226C114.246 65.0655 114.666 65.4232 115.164 65.3132C115.677 65.1953 115.891 64.7039 115.724 63.9532ZM118.511 61.4532L119.444 61.241L116.381 69.0159L115.447 69.2282L118.511 61.4532ZM118.391 66.6889C118.146 65.5805 118.62 64.6961 119.573 64.4799C120.525 64.2637 121.338 64.8611 121.583 65.9657C121.828 67.0741 121.346 67.9625 120.389 68.1787C119.437 68.3948 118.632 67.7974 118.387 66.6889H118.391ZM120.801 66.1426C120.638 65.3996 120.226 65.038 119.721 65.152C119.215 65.266 118.993 65.7613 119.161 66.512C119.328 67.2628 119.736 67.6166 120.242 67.5026C120.747 67.3886 120.965 66.8815 120.801 66.1426Z" fill="white"/>
</g>
<path d="M85.9053 84.7191C86.6907 84.44 88.3082 84.0823 89.844 83.8583C91.722 83.5871 92.9001 83.6067 93.9732 84.0548C94.9958 84.4282 95.8123 85.2694 95.9912 86.5154C96.1623 87.7418 95.6179 88.9879 94.1638 89.7779V89.8172C95.7851 90.0216 97.1032 91.0397 97.3559 92.8164C97.5309 94.0624 97.1032 95.1237 96.3528 95.9413C95.4741 96.8807 93.8838 97.5686 91.1776 97.9577C89.6612 98.1778 88.5181 98.2368 87.8144 98.2329L85.9053 84.7152V84.7191ZM89.7001 89.546L90.7111 89.4006C92.3285 89.1687 93.0984 88.3707 92.9545 87.3487C92.8068 86.3071 91.9436 85.8708 90.5478 86.0713C89.8829 86.1695 89.5018 86.2639 89.2452 86.3425L89.6962 89.5499L89.7001 89.546ZM90.5633 95.6504C90.8705 95.6504 91.236 95.5954 91.7609 95.5207C93.1567 95.3202 94.3115 94.6127 94.1093 93.1623C93.9149 91.7747 92.6046 91.4013 91.0688 91.6214L90.019 91.7708L90.5672 95.6504H90.5633Z" fill="#FAFAFA"/>
<path d="M101.15 82.3329L102.269 90.2572C102.604 92.6274 103.661 93.7005 105.236 93.4764C106.854 93.2445 107.581 91.971 107.239 89.5418L106.119 81.6175L109.19 81.1733L110.279 88.8932C110.878 93.1384 109.043 95.4693 105.489 95.9803C102.056 96.4756 99.7655 94.8482 99.1434 90.4577L98.0586 82.781L101.15 82.3368V82.3329Z" fill="#FAFAFA"/>
<path d="M116.948 94.0978L116.15 88.4611L110.703 80.9535L114.218 80.4464L116.08 83.5517C116.644 84.4911 117.033 85.1869 117.504 86.0359H117.542C117.725 85.1279 117.935 84.2867 118.2 83.249L119.105 79.7429L122.558 79.2437L119.207 87.9148L120.015 93.6536L116.944 94.0978H116.948Z" fill="#FAFAFA"/>
<path d="M110.962 164.851C113.449 164.851 115.465 162.813 115.465 160.3C115.465 157.786 113.449 155.748 110.962 155.748C108.476 155.748 106.46 157.786 106.46 160.3C106.46 162.813 108.476 164.851 110.962 164.851Z" fill="#263238"/>
<path d="M110.961 162.779C112.316 162.779 113.415 161.668 113.415 160.299C113.415 158.929 112.316 157.818 110.961 157.818C109.606 157.818 108.508 158.929 108.508 160.299C108.508 161.668 109.606 162.779 110.961 162.779Z" fill="#E0E0E0"/>
<path d="M118.742 152.897V155.94L111.759 161.628C111.759 161.628 111.207 162.036 110.686 162.095C110.165 162.15 109.679 161.856 109.679 161.073C109.679 159.591 111.502 155.279 111.502 155.279H112.964V152.897H118.746H118.742Z" fill="#455A64"/>
<path d="M110.57 160.692C110.57 160.692 110.481 160.515 110.683 160.318C110.78 160.228 110.951 160.169 111.13 160.232C111.305 160.287 111.461 160.472 111.457 160.692C111.457 160.912 111.301 161.101 111.13 161.152C110.955 161.211 110.78 161.152 110.683 161.065C110.485 160.869 110.551 160.68 110.57 160.692C110.601 160.688 110.609 160.845 110.769 160.951C110.846 161.002 110.959 161.022 111.064 160.979C111.169 160.936 111.255 160.826 111.255 160.696C111.255 160.566 111.169 160.452 111.064 160.413C110.959 160.37 110.846 160.389 110.769 160.44C110.609 160.546 110.601 160.704 110.57 160.7V160.692Z" fill="#263238"/>
<path d="M111.498 155.279C111.498 155.251 111.902 155.224 112.56 155.212C113.217 155.2 114.123 155.212 115.122 155.236C116.086 155.267 116.957 155.295 117.68 155.318C118.333 155.346 118.742 155.369 118.742 155.397C118.742 155.424 118.337 155.452 117.68 155.464C117.023 155.475 116.117 155.464 115.118 155.44C114.154 155.409 113.283 155.381 112.56 155.358C111.906 155.33 111.498 155.306 111.498 155.279Z" fill="#263238"/>
<path d="M56.356 164.894C58.8427 164.894 60.8585 162.856 60.8585 160.342C60.8585 157.828 58.8427 155.79 56.356 155.79C53.8694 155.79 51.8535 157.828 51.8535 160.342C51.8535 162.856 53.8694 164.894 56.356 164.894Z" fill="#263238"/>
<path d="M56.3548 162.822C57.7098 162.822 58.8082 161.711 58.8082 160.342C58.8082 158.972 57.7098 157.861 56.3548 157.861C54.9998 157.861 53.9014 158.972 53.9014 160.342C53.9014 161.711 54.9998 162.822 56.3548 162.822Z" fill="#E0E0E0"/>
<path d="M64.1307 152.075V155.983L57.1476 161.67C57.1476 161.67 56.5954 162.079 56.0744 162.138C55.5534 162.193 55.0674 161.898 55.0674 161.116C55.0674 159.634 56.8909 155.322 56.8909 155.322H58.3529V152.075H64.1346H64.1307Z" fill="#455A64"/>
<path d="M55.9638 160.738C55.9638 160.738 55.8743 160.561 56.0765 160.365C56.1737 160.274 56.3448 160.215 56.5237 160.278C56.6986 160.333 56.8542 160.518 56.8503 160.738C56.8503 160.958 56.6947 161.147 56.5237 161.198C56.3487 161.257 56.1737 161.198 56.0765 161.112C55.8782 160.915 55.9443 160.726 55.9638 160.738C55.9949 160.734 56.0026 160.892 56.1621 160.998C56.2398 161.049 56.3526 161.068 56.4576 161.025C56.5625 160.982 56.6481 160.872 56.6481 160.742C56.6481 160.612 56.5625 160.499 56.4576 160.459C56.3526 160.416 56.2398 160.436 56.1621 160.487C56.0026 160.593 55.9949 160.75 55.9638 160.746V160.738Z" fill="#263238"/>
<path d="M56.8916 155.322C56.8916 155.295 57.296 155.267 57.9531 155.255C58.6102 155.244 59.5161 155.255 60.5154 155.279C61.4796 155.31 62.3506 155.338 63.0738 155.361C63.727 155.389 64.1353 155.413 64.1353 155.44C64.1353 155.468 63.7309 155.495 63.0738 155.507C62.4167 155.519 61.5107 155.507 60.5115 155.483C59.5472 155.452 58.6763 155.424 57.9531 155.401C57.2999 155.373 56.8916 155.35 56.8916 155.322Z" fill="#263238"/>
<path d="M77.7844 131.656C76.4469 131.656 75.2415 130.791 74.8022 129.498L61.6602 90.5447L131.371 101.936L129.769 125.724C129.672 127.191 128.502 128.37 127.051 128.464L77.9827 131.652C77.9166 131.656 77.8466 131.66 77.7805 131.66L77.7844 131.656ZM62.8149 91.5313L75.537 129.246C75.8831 130.268 76.8707 130.937 77.9322 130.866L127.001 127.678C128.066 127.607 128.922 126.746 128.996 125.669L130.547 102.596L62.8111 91.5274L62.8149 91.5313Z" fill="#455A64"/>
<path d="M64.8246 99.7188L61.9085 97.4704L59.0312 89.0037L56.5039 87.5218L56.8966 86.8418L59.6728 88.4691L62.5695 96.9909L65.299 99.0938L64.8246 99.7188Z" fill="#455A64"/>
<path d="M64.7219 97.8662L64.6162 98.645L130.56 107.789L130.666 107.01L64.7219 97.8662Z" fill="#455A64"/>
<path d="M68.5636 109.35L68.5176 110.135L130.441 113.843L130.487 113.058L68.5636 109.35Z" fill="#455A64"/>
<path d="M129.707 119.227L72.3799 120.755L72.4004 121.541L129.727 120.013L129.707 119.227Z" fill="#455A64"/>
<path d="M129.374 125.165L74.8906 127.83L74.9282 128.615L129.412 125.95L129.374 125.165Z" fill="#455A64"/>
<path d="M124.569 127.757L123.795 127.69C124.522 118.913 125.012 109.998 125.241 101.193L126.019 101.213C125.786 110.033 125.3 118.964 124.569 127.753V127.757Z" fill="#455A64"/>
<path d="M120.095 128.216H119.317C119.317 128.023 119.45 109.569 119.679 100.815L120.457 100.835C120.227 109.58 120.095 128.031 120.095 128.216Z" fill="#455A64"/>
<path d="M114.785 99.3753L114.008 99.396L114.762 128.308L115.539 128.287L114.785 99.3753Z" fill="#455A64"/>
<path d="M108.401 98.4841L107.626 98.5422L109.852 128.89L110.627 128.832L108.401 98.4841Z" fill="#455A64"/>
<path d="M100.552 97.0496L99.7812 97.1543L104.064 129.391L104.835 129.287L100.552 97.0496Z" fill="#455A64"/>
<path d="M92.031 95.4453L91.2666 95.5896L97.6039 129.889L98.3683 129.745L92.031 95.4453Z" fill="#455A64"/>
<path d="M81.9501 94.1069L81.1963 94.3L90.2269 130.326L90.9807 130.133L81.9501 94.1069Z" fill="#455A64"/>
<path d="M69.3284 92.0172L68.5889 92.2603L81.6142 132.763L82.3538 132.52L69.3284 92.0172Z" fill="#455A64"/>
<path d="M121.123 153.604H121.107L57.524 152.555C57.2635 152.551 57.0185 152.441 56.8397 152.252C56.6608 152.063 56.5636 151.808 56.5675 151.549C56.5947 150.397 56.758 144.583 57.2013 143.302C57.3607 142.846 57.6212 142.083 68.1815 136.852C69.2313 136.333 78.4579 131.773 79.7293 131.702C81.0474 131.628 92.7741 131.125 93.2718 131.101C93.7967 131.081 94.2594 131.498 94.2828 132.04C94.3061 132.583 93.8901 133.043 93.3535 133.062C93.233 133.066 81.3468 133.577 79.8732 133.66C78.2052 134.022 60.8095 142.461 58.9976 144.084C58.8071 144.921 58.6282 147.81 58.5349 150.601L121.134 151.635C121.671 151.643 122.099 152.091 122.091 152.633C122.083 153.172 121.648 153.6 121.119 153.6L121.123 153.604Z" fill="#455A64"/>
<path d="M93.0849 151.965L85.0091 151.765C83.485 151.686 82.3457 151.23 81.6109 150.405C80.9149 149.623 80.6038 148.546 80.6816 147.198C80.7516 146.003 81.1598 144.788 81.8636 143.683L89.6749 132.005L90.3204 132.446L82.5129 144.116C81.8869 145.099 81.5214 146.183 81.4592 147.241C81.3931 148.369 81.642 149.257 82.1902 149.878C82.7812 150.543 83.7377 150.912 85.0402 150.979L93.1043 151.179L93.0849 151.965Z" fill="#455A64"/>
<path d="M90.8452 132.379C84.3364 120.528 67.2634 89.5575 66.408 88.5709C65.8909 88.1032 61.7267 86.6213 59.2305 85.8037L59.4715 85.0569C60.1481 85.2809 66.1125 87.2502 66.9446 88.001C67.7495 88.7282 87.5636 124.777 91.5295 131.997L90.8491 132.379H90.8452Z" fill="#455A64"/>
<path d="M61.0285 85.6626L56.7438 88.2923C56.7438 88.2923 51.798 86.0282 51.382 85.4936C50.9698 84.959 50.8532 82.9662 52.5601 82.5928C54.267 82.2194 61.0247 85.6626 61.0247 85.6626H61.0285Z" fill="#455A64"/>
<path d="M52.7836 84.3575C52.7836 84.3575 52.7525 84.2828 52.7719 84.1492C52.7914 84.0155 52.8652 83.8151 53.0597 83.65C53.2463 83.4849 53.5768 83.3866 53.8995 83.5006C54.2222 83.6068 54.5061 83.9527 54.5022 84.3575C54.5061 84.7663 54.2222 85.1122 53.8995 85.2144C53.5729 85.3284 53.2463 85.2301 53.0597 85.065C52.8652 84.9 52.7914 84.6995 52.7719 84.5658C52.7525 84.4283 52.7719 84.3575 52.7836 84.3575C52.7992 84.3575 52.8069 84.4322 52.8458 84.5462C52.8847 84.6602 52.9702 84.8253 53.1452 84.9511C53.3124 85.0729 53.5807 85.1397 53.8373 85.0375C54.09 84.9471 54.3039 84.672 54.3039 84.3575C54.3039 84.0431 54.09 83.7679 53.8373 83.6775C53.5846 83.5792 53.3163 83.6421 53.1452 83.764C52.9702 83.8858 52.8847 84.0509 52.8458 84.1688C52.8069 84.2868 52.7992 84.3614 52.7836 84.3575Z" fill="#263238"/>
<path d="M57.5391 152.382C57.5391 152.327 71.7464 152.512 89.2704 152.795C106.798 153.078 121.002 153.353 121.002 153.412C121.002 153.467 106.794 153.282 89.2665 152.999C71.7464 152.716 57.5391 152.441 57.5391 152.382Z" fill="#263238"/>
<path d="M155.351 164.898C155.351 164.953 120.691 165 77.9526 165C35.2138 165 0.546875 164.953 0.546875 164.898C0.546875 164.843 35.1983 164.795 77.9526 164.795C120.707 164.795 155.351 164.843 155.351 164.898Z" fill="#263238"/>
</svg>
