<svg width="20" height="13" viewBox="0 0 20 13" fill="none" xmlns="http://www.w3.org/2000/svg">
<path d="M19.8729 5.98462C19.6942 5.74021 15.4371 0 9.9999 0C4.56274 0 0.305391 5.74021 0.126914 5.98439C-0.0423048 6.21626 -0.0423048 6.53076 0.126914 6.76263C0.305391 7.00705 4.56274 12.7473 9.9999 12.7473C15.4371 12.7473 19.6942 7.00701 19.8729 6.76283C20.0423 6.53099 20.0423 6.21626 19.8729 5.98462ZM9.9999 11.4286C5.99486 11.4286 2.52606 7.61869 1.49922 6.37318C2.52473 5.12657 5.98626 1.31867 9.9999 1.31867C14.0048 1.31867 17.4733 5.1279 18.5006 6.37407C17.4751 7.62064 14.0135 11.4286 9.9999 11.4286Z" fill="#B7B7B7"/>
<path d="M10 2.04395C7.81868 2.04395 6.04395 3.81868 6.04395 6.00001C6.04395 8.18134 7.81868 9.95607 10 9.95607C12.1813 9.95607 13.9561 8.18134 13.9561 6.00001C13.9561 3.81868 12.1813 2.04395 10 2.04395ZM10 8.63736C8.54571 8.63736 7.36266 7.45427 7.36266 6.00001C7.36266 4.54575 8.54575 3.36266 10 3.36266C11.4543 3.36266 12.6374 4.54575 12.6374 6.00001C12.6374 7.45427 11.4543 8.63736 10 8.63736Z" fill="#B7B7B7"/>
</svg>
