<svg width="100" height="56" viewBox="0 0 100 56" fill="none" xmlns="http://www.w3.org/2000/svg">
<path d="M79.7616 8.44181C79.7616 7.45594 80.1579 6.55506 80.7855 5.89214C81.4131 5.24623 82.2884 4.83828 83.2628 4.83828C84.3858 4.83828 85.3767 5.38221 86.0043 6.2151C86.4668 6.82702 86.7475 7.60892 86.7475 8.44181V12.0113H91.4048V8.44181C91.4048 7.54093 91.2727 6.67404 91.0085 5.85815C90.3148 3.64844 88.7459 1.84668 86.7475 0.860814C86.698 0.843816 86.6649 0.809819 86.6154 0.792822C85.5914 0.316885 84.4519 0.0449219 83.2628 0.0449219C82.0076 0.0449219 80.835 0.333883 79.7616 0.843815C78.9193 1.25176 78.1431 1.81269 77.499 2.4926C76.0291 4.0054 75.1042 6.11312 75.1042 8.42481V11.9943H79.7616V8.44181Z" fill="#FFC10E"/>
<path d="M99.5633 25.27V12.0117H66.9457V45.5823H94.906H99.5633V35.9955C99.5633 34.2448 99.1174 32.613 98.3082 31.2022C97.4824 29.7404 96.3098 28.5335 94.8895 27.6836C93.5188 26.8678 91.9333 26.3918 90.2322 26.3918H76.2603V31.1852H90.2322C92.8086 31.1852 94.8895 33.3269 94.8895 35.9785V40.7719H71.603V16.8051H94.906V22.4143C96.6401 23.0433 98.2091 24.0291 99.5633 25.27Z" fill="white"/>
<path d="M62.2884 28.7881H57.6311V40.7715H48.3165V28.8051V28.7881H40.1579C39.2826 28.7881 38.4403 28.9241 37.6476 29.196C35.5006 29.9099 33.75 31.5247 32.7921 33.5814C32.7756 33.6324 32.7426 33.6664 32.7261 33.7174C32.2636 34.7713 31.9994 35.9441 31.9994 37.168C31.9994 38.4598 32.2801 39.6666 32.7756 40.7715C33.172 41.6384 33.717 42.4373 34.3776 43.1002C35.8474 44.613 37.8953 45.5649 40.1414 45.5649H43.6427V46.7717C43.6427 47.7576 43.2463 48.6584 42.6187 49.3214C41.9911 49.9673 41.1158 50.3752 40.1414 50.3752H34.3115V55.1686H40.1414C41.3966 55.1686 42.5692 54.8796 43.6427 54.3697C44.4849 53.9617 45.2612 53.4008 45.9052 52.7209C47.3751 51.2081 48.3 49.1004 48.3 46.7887V45.5819H62.2884V28.7881ZM40.1414 40.7885C39.1835 40.7885 38.3082 40.3805 37.6641 39.7346C37.0365 39.0887 36.6402 38.1878 36.6402 37.185C36.6402 36.0291 37.1687 35.0093 37.9779 34.3633C38.5725 33.8874 39.3322 33.5984 40.1414 33.5984H43.6427V40.7885H40.1414Z" fill="white"/>
<path d="M22.8664 28.8051V40.7885H12.3792C7.87054 40.7885 4.22066 37.032 4.22066 32.3916V28.7881H-0.436646V32.3916C-0.436646 39.6836 5.29416 45.5819 12.3792 45.5819H27.5237V28.8051H22.8664Z" fill="white"/>
<path d="M59.9598 26.3914C61.3735 26.3914 62.5196 25.2118 62.5196 23.7567C62.5196 22.3016 61.3735 21.1221 59.9598 21.1221C58.546 21.1221 57.3999 22.3016 57.3999 23.7567C57.3999 25.2118 58.546 26.3914 59.9598 26.3914Z" fill="white"/>
<path d="M18.2092 26.3914C19.6229 26.3914 20.769 25.2118 20.769 23.7567C20.769 22.3016 19.6229 21.1221 18.2092 21.1221C16.7954 21.1221 15.6493 22.3016 15.6493 23.7567C15.6493 25.2118 16.7954 26.3914 18.2092 26.3914Z" fill="white"/>
<path d="M8.87798 26.3914C10.2918 26.3914 11.4379 25.2118 11.4379 23.7567C11.4379 22.3016 10.2918 21.1221 8.87798 21.1221C7.46421 21.1221 6.31812 22.3016 6.31812 23.7567C6.31812 25.2118 7.46421 26.3914 8.87798 26.3914Z" fill="white"/>
</svg>
