<svg width="24" height="23" viewBox="0 0 24 23" fill="none" xmlns="http://www.w3.org/2000/svg">
<path fill-rule="evenodd" clip-rule="evenodd" d="M11.9983 1.21815C13.9045 0.0130337 16.4366 -0.319896 18.6241 0.381132C23.3824 1.91566 24.8595 7.10304 23.5383 11.2307C21.4997 17.7134 12.7931 22.5491 12.4239 22.7519C12.2926 22.8246 12.1472 22.8609 12.0018 22.8609C11.8565 22.8609 11.7123 22.8258 11.581 22.7543C11.2141 22.5538 2.57078 17.7896 0.464176 11.2318L0.463003 11.2307C-0.859338 7.10186 0.613056 1.91331 5.36669 0.381132C7.59872 -0.340998 10.0312 -0.0233073 11.9983 1.21815ZM5.90594 2.05516C2.05966 3.29544 1.09369 7.43245 2.1382 10.6949C3.78175 15.8085 10.2751 19.9431 12.0007 20.9665C13.7321 19.9326 20.2723 15.7522 21.8631 10.6996C22.9076 7.43362 21.9382 3.29661 18.086 2.05516C16.2197 1.45612 14.0428 1.8207 12.5399 2.98361C12.2257 3.2251 11.7897 3.22979 11.4731 2.99065C9.88117 1.79374 7.80153 1.44323 5.90594 2.05516ZM16.9606 4.38321C18.5585 4.90019 19.678 6.31514 19.8151 7.988C19.8538 8.47215 19.4939 8.89652 19.0098 8.93521C18.9852 8.93755 18.9617 8.93872 18.9371 8.93872C18.4834 8.93872 18.0989 8.59055 18.0614 8.13102C17.984 7.16739 17.3393 6.35383 16.4214 6.05724C15.9583 5.90718 15.7051 5.41131 15.854 4.9506C16.0052 4.48871 16.4964 4.23784 16.9606 4.38321Z" fill="#111111"/>
</svg>
