<svg width="20" height="20" viewBox="0 0 20 20" fill="none" xmlns="http://www.w3.org/2000/svg">
<path fill-rule="evenodd" clip-rule="evenodd" d="M9.9986 1.96437C11.5871 1.01032 13.6972 0.746749 15.5201 1.30173C19.4853 2.51656 20.7163 6.62324 19.6153 9.89094C17.9164 15.0231 10.6609 18.8514 10.3532 19.0119C10.2438 19.0695 10.1227 19.0982 10.0015 19.0982C9.8804 19.0982 9.76024 19.0704 9.65082 19.0138C9.34505 18.8551 2.14232 15.0834 0.386813 9.89187L0.385836 9.89094C-0.716115 6.62231 0.51088 2.51471 4.47224 1.30173C6.33227 0.730044 8.35935 0.981548 9.9986 1.96437ZM14.1339 4.47004C15.4654 4.87932 16.3983 5.99949 16.5126 7.32383C16.5449 7.70712 16.2449 8.04308 15.8415 8.0737C15.821 8.07556 15.8014 8.07649 15.7809 8.07649C15.4029 8.07649 15.0824 7.80085 15.0512 7.43705C14.9867 6.67419 14.4494 6.03011 13.6845 5.79531C13.2986 5.67652 13.0876 5.28395 13.2117 4.91922C13.3377 4.55357 13.747 4.35496 14.1339 4.47004Z" fill="#DA3250"/>
</svg>
