<svg width="24" height="24" viewBox="0 0 24 24" fill="none" xmlns="http://www.w3.org/2000/svg">
<path d="M0.0599976 7.05609C0.116222 5.78087 0.322441 4.90417 0.617847 4.1445C0.922596 3.33813 1.39144 2.61618 2.0057 2.01602C2.60585 1.40653 3.33256 0.932924 4.12959 0.632938C4.89366 0.33753 5.76578 0.131313 7.041 0.0750881C8.32574 0.0141019 8.73359 0 11.9921 0C15.2505 0 15.6584 0.0141019 16.9383 0.0703264C18.2136 0.126551 19.0903 0.332952 19.8498 0.628176C20.6563 0.932924 21.3783 1.40177 21.9784 2.01602C22.5879 2.61618 23.0613 3.34289 23.3615 4.13992C23.6569 4.90417 23.8631 5.77611 23.9193 7.05133C23.9803 8.33607 23.9944 8.74392 23.9944 12.0024C23.9944 15.2608 23.9803 15.6687 23.9241 16.9487C23.8679 18.2239 23.6615 19.1006 23.3661 19.8603C23.0613 20.6666 22.5879 21.3886 21.9784 21.9887C21.3783 22.5982 20.6515 23.0718 19.8545 23.3718C19.0903 23.6672 18.2183 23.8734 16.9429 23.9297C15.6631 23.9861 15.2551 24 11.9966 24C8.73817 24 8.33032 23.9861 7.05034 23.9297C5.77512 23.8734 4.89842 23.6672 4.13893 23.3718C2.526 22.7482 1.25079 21.473 0.627188 19.8603C0.331964 19.096 0.125563 18.2239 0.0693378 16.9487C0.013113 15.6687 -0.000988007 15.2608 -0.000988007 12.0024C-0.000988007 8.74392 0.00377274 8.33607 0.0599976 7.05609ZM2.22125 16.8549C2.2729 18.027 2.46978 18.66 2.63387 19.0819C3.03715 20.1275 3.86697 20.9573 4.91252 21.3606C5.33448 21.5247 5.972 21.7215 7.13953 21.773C8.4054 21.8294 8.78506 21.8433 11.9873 21.8433C15.1895 21.8433 15.5739 21.8294 16.8352 21.773C18.0073 21.7215 18.6403 21.5247 19.0622 21.3606C19.5825 21.1683 20.0562 20.8635 20.4406 20.465C20.8391 20.0758 21.1438 19.607 21.3361 19.0867C21.5002 18.6647 21.6971 18.027 21.7486 16.8597C21.805 15.5938 21.8189 15.214 21.8189 12.0117C21.8189 8.80949 21.805 8.42507 21.7486 7.16396C21.6971 5.99185 21.5002 5.35891 21.3361 4.93695C21.1438 4.41646 20.8391 3.94304 20.4358 3.55844C20.0468 3.15993 19.578 2.85518 19.0575 2.66306C18.6355 2.49897 17.9978 2.30209 16.8305 2.25045C15.5646 2.19422 15.1848 2.18012 11.9827 2.18012C8.77572 2.18012 8.39606 2.19422 7.13477 2.25045C5.96266 2.30209 5.32972 2.49897 4.90776 2.66306C4.38745 2.85518 3.91385 3.15993 3.52944 3.55844C3.13092 3.94762 2.82617 4.41646 2.63387 4.93695C2.46978 5.35891 2.2729 5.99643 2.22125 7.16396C2.16503 8.42983 2.15093 8.80949 2.15093 12.0117C2.15093 15.214 2.16503 15.589 2.22125 16.8549Z" fill="#0080FF"/>
<path d="M11.9922 5.83704C15.3959 5.83704 18.1575 8.59845 18.1575 12.0023C18.1575 15.4062 15.3959 18.1676 11.9922 18.1676C8.58832 18.1676 5.82691 15.4062 5.82691 12.0023C5.82691 8.59845 8.58832 5.83704 11.9922 5.83704ZM11.9922 16.0016C14.2003 16.0016 15.9915 14.2106 15.9915 12.0023C15.9915 9.794 14.2003 8.00305 11.9922 8.00305C9.78387 8.00305 7.99292 9.794 7.99292 12.0023C7.99292 14.2106 9.78387 16.0016 11.9922 16.0016Z" fill="#0080FF"/>
<path d="M4.14357 5.59336C4.14357 6.3882 4.78804 7.03268 5.58306 7.03268C6.3779 7.03268 7.02237 6.3882 7.02237 5.59336C7.02237 4.79835 6.3779 4.15405 5.58306 4.15405C4.78804 4.15405 4.14357 4.79835 4.14357 5.59336Z" fill="#0080FF"/>
</svg>
