<svg width="18" height="20" viewBox="0 0 18 20" fill="none" xmlns="http://www.w3.org/2000/svg">
<path fill-rule="evenodd" clip-rule="evenodd" d="M17.3879 16.299C17.3879 19.6165 12.599 20 8.99775 20L8.74004 19.9998C6.44563 19.9945 0.605469 19.8569 0.605469 16.2789C0.605469 13.0291 5.20194 12.5948 8.77576 12.5784L9.25544 12.5781C11.5497 12.5834 17.3879 12.721 17.3879 16.299ZM8.99775 14.0877C4.48323 14.0877 2.19471 14.8245 2.19471 16.2789C2.19471 17.7464 4.48323 18.4902 8.99775 18.4902C13.5112 18.4902 15.7987 17.7534 15.7987 16.299C15.7987 14.8315 13.5112 14.0877 8.99775 14.0877ZM8.99775 0C12.1 0 14.6226 2.39754 14.6226 5.34463C14.6226 8.29173 12.1 10.6883 8.99775 10.6883H8.96384C5.86799 10.6792 3.36016 8.28066 3.37072 5.34161C3.37072 2.39754 5.89448 0 8.99775 0ZM8.99775 1.43731C6.72936 1.43731 4.8837 3.18967 4.8837 5.34463C4.8763 7.49255 6.70817 9.2439 8.96702 9.25195L8.99775 9.97061V9.25195C11.2651 9.25195 13.1097 7.49859 13.1097 5.34463C13.1097 3.18967 11.2651 1.43731 8.99775 1.43731Z" fill="#9CA4AB"/>
</svg>
