<svg width="20" height="20" viewBox="0 0 20 20" fill="none" xmlns="http://www.w3.org/2000/svg">
<path d="M15.7385 12.453C14.5723 12.453 13.5283 12.985 12.8355 13.8189L8.32933 11.2605C8.46946 10.8661 8.54648 10.4421 8.54648 10.0003C8.54648 9.55848 8.46946 9.13448 8.32933 8.74014L12.8352 6.18108C13.5278 7.01526 14.572 7.54744 15.7383 7.54744C17.8186 7.54744 19.5111 5.85434 19.5111 3.77315C19.5113 1.69257 17.8188 0 15.7385 0C13.6579 0 11.9652 1.69257 11.9652 3.77306C11.9652 4.21493 12.0422 4.63902 12.1824 5.03345L7.67629 7.5926C6.98365 6.75886 5.9397 6.22703 4.77377 6.22703C2.69293 6.22703 1 7.9196 1 10.0002C1 12.0807 2.69293 13.7732 4.77377 13.7732C5.9397 13.7732 6.98356 13.2414 7.6762 12.4078L12.1824 14.9663C12.0422 15.3607 11.9652 15.7849 11.9652 16.2269C11.9652 18.3073 13.6578 19.9999 15.7384 19.9999C17.8187 19.9999 19.5112 18.3073 19.5112 16.2269C19.5113 14.146 17.8188 12.453 15.7385 12.453ZM15.7385 1.32033C17.0908 1.32033 18.191 2.4206 18.191 3.77306C18.191 5.12622 17.0908 6.22703 15.7385 6.22703C14.3859 6.22703 13.2856 5.12622 13.2856 3.77306C13.2856 2.4206 14.3859 1.32033 15.7385 1.32033ZM4.77385 12.453C3.42104 12.453 2.32042 11.3526 2.32042 10.0003C2.32042 8.64772 3.42104 7.54744 4.77385 7.54744C6.12614 7.54744 7.22623 8.64772 7.22623 10.0003C7.22623 11.3526 6.12605 12.453 4.77385 12.453ZM15.7385 18.6797C14.3859 18.6797 13.2856 17.5793 13.2856 16.2269C13.2856 14.874 14.3859 13.7733 15.7385 13.7733C17.0908 13.7733 18.191 14.874 18.191 16.2269C18.191 17.5793 17.0908 18.6797 15.7385 18.6797Z" fill="#B7B7B7"/>
</svg>
