<svg width="14" height="12" viewBox="0 0 14 12" fill="none" xmlns="http://www.w3.org/2000/svg">
<path d="M13.0855 5.0157L10.3603 7.6722L11.0039 11.4242C11.0319 11.5883 10.9645 11.7541 10.8298 11.8521C10.7536 11.9076 10.6631 11.9356 10.5725 11.9356C10.503 11.9356 10.433 11.919 10.3691 11.8853L6.99946 10.1139L3.63027 11.8849C3.48327 11.9628 3.30433 11.9501 3.16958 11.8516C3.03483 11.7536 2.96746 11.5878 2.99546 11.4238L3.63902 7.67176L0.913396 5.0157C0.794396 4.89932 0.751083 4.7252 0.802708 4.56726C0.854333 4.40932 0.991271 4.29338 1.15621 4.26932L4.92265 3.72245L6.60702 0.30907C6.75446 0.0102578 7.24446 0.0102578 7.3919 0.30907L9.07627 3.72245L12.8427 4.26932C13.0076 4.29338 13.1446 4.40888 13.1962 4.56726C13.2478 4.72563 13.2045 4.89888 13.0855 5.0157Z" fill="#FFCD1A"/>
</svg>
