<svg width="128" height="128" viewBox="0 0 128 128" fill="none" xmlns="http://www.w3.org/2000/svg">
<g clip-path="url(#clip0_715_16319)">
<path d="M64 0C28.656 0 0 28.656 0 64C0 99.344 28.656 128 64 128C99.344 128 128 99.344 128 64C128 28.656 99.344 0 64 0ZM64 120C33.125 120 8 94.875 8 64C8 33.125 33.125 8 64 8C94.875 8 120 33.125 120 64C120 94.875 94.875 120 64 120Z" fill="#0080FF"/>
<path d="M32.891 69.656L49.86 86.625C52.977 89.75 58.048 89.75 61.173 86.625L95.111 52.687C98.236 49.562 98.236 44.492 95.111 41.374C91.994 38.249 86.923 38.249 83.798 41.374L55.516 69.656L44.203 58.344C41.078 55.219 36.008 55.219 32.89 58.344C29.766 61.469 29.766 66.539 32.891 69.656Z" fill="#FFC10E"/>
</g>
<defs>
<clipPath id="clip0_715_16319">
<rect width="128" height="128" fill="white"/>
</clipPath>
</defs>
</svg>
