<svg width="24" height="24" viewBox="0 0 24 24" fill="none" xmlns="http://www.w3.org/2000/svg">
<path d="M22.2746 6.00927C20.9028 6.00927 19.6371 5.55482 18.6207 4.78817C17.455 3.90931 16.6174 2.62014 16.3216 1.13425C16.2484 0.767121 16.209 0.388255 16.2052 0H12.2865V10.7078L12.2818 16.5729C12.2818 18.141 11.2607 19.4705 9.84525 19.9381C9.43445 20.0738 8.9908 20.1381 8.52884 20.1128C7.93918 20.0804 7.38661 19.9024 6.90633 19.6151C5.88429 19.0039 5.19134 17.895 5.17257 16.6264C5.14299 14.6438 6.74577 13.0274 8.72696 13.0274C9.11803 13.0274 9.49361 13.0913 9.84525 13.2073V10.2806V9.22846C9.47436 9.17353 9.0969 9.14489 8.71522 9.14489C6.54672 9.14489 4.51859 10.0463 3.06885 11.6702C1.9731 12.8974 1.31583 14.4631 1.21443 16.1048C1.08157 18.2616 1.87075 20.3118 3.40124 21.8245C3.62612 22.0465 3.86226 22.2526 4.10921 22.4428C5.42139 23.4526 7.02558 24 8.71522 24C9.0969 24 9.47436 23.9718 9.84525 23.9169C11.4236 23.6831 12.8799 22.9606 14.0292 21.8245C15.4414 20.4287 16.2216 18.5757 16.2301 16.6034L16.2099 7.84492C16.8836 8.36462 17.6202 8.79466 18.4108 9.12846C19.6404 9.64723 20.9441 9.91014 22.2858 9.90967V7.06418V6.00833C22.2868 6.00927 22.2755 6.00927 22.2746 6.00927Z" fill="#0080FF"/>
</svg>
