<svg width="16" height="14" viewBox="0 0 16 14" fill="none" xmlns="http://www.w3.org/2000/svg">
<path d="M14.4072 2.62828H10.9596V1.23906C10.9596 0.577578 10.4214 0.0394592 9.75996 0.0394592H6.24001C5.57853 0.0394592 5.04038 0.577578 5.04038 1.23906V2.62828H1.5928C0.714507 2.62828 0 3.34282 0 4.22108V12.3677C0 13.246 0.714507 13.9605 1.5928 13.9605H14.4072C15.2855 13.9605 16 13.246 16 12.3677V4.22108C16 3.34282 15.2855 2.62828 14.4072 2.62828ZM6.05648 1.23906C6.05648 1.13786 6.13881 1.05556 6.24001 1.05556H9.75996C9.86116 1.05556 9.94349 1.13789 9.94349 1.23906V2.62828H6.05648V1.23906ZM1.0161 4.22108C1.0161 3.90307 1.27479 3.64438 1.5928 3.64438H14.4072C14.7252 3.64438 14.9839 3.90307 14.9839 4.22108V4.97302C14.9839 5.67832 14.511 6.30859 13.8338 6.50574L8.5201 8.05284C8.17987 8.15194 7.82017 8.15194 7.47987 8.05284L2.16619 6.50571C1.48903 6.30855 1.0161 5.67832 1.0161 4.97302V4.22108ZM14.4072 12.9444H1.5928C1.27482 12.9444 1.0161 12.6857 1.0161 12.3678V7.0417C1.27212 7.23958 1.56396 7.38866 1.88213 7.48132C7.75196 9.19033 7.45028 9.1433 7.99998 9.1433C8.55696 9.1433 8.24115 9.19233 14.1178 7.48132C14.436 7.38866 14.7279 7.23958 14.9839 7.0417V12.3677C14.9839 12.6857 14.7252 12.9444 14.4072 12.9444Z" fill="#0080FF"/>
</svg>
